<svg width="81" height="81" viewBox="0 0 81 81" fill="none" xmlns="http://www.w3.org/2000/svg">
<g clip-path="url(#clip0_142_442)">
<path d="M53.1562 25.3125C55.7139 25.3125 58.1792 25.6421 60.5522 26.3013C62.9253 26.9604 65.1401 27.8965 67.1968 29.1094C69.2534 30.3223 71.1387 31.7725 72.8525 33.46C74.5664 35.1475 76.0166 37.0195 77.2031 39.0762C78.3896 41.1328 79.3257 43.3608 80.0112 45.7603C80.6968 48.1597 81.0264 50.625 81 53.1562C81 55.7139 80.6704 58.1792 80.0112 60.5522C79.3521 62.9253 78.416 65.1401 77.2031 67.1968C75.9902 69.2534 74.54 71.1387 72.8525 72.8525C71.165 74.5664 69.293 76.0166 67.2363 77.2031C65.1797 78.3896 62.9517 79.3257 60.5522 80.0112C58.1528 80.6968 55.6875 81.0264 53.1562 81C50.5986 81 48.1333 80.6704 45.7603 80.0112C43.3872 79.3521 41.1724 78.416 39.1157 77.2031C37.0591 75.9902 35.1738 74.54 33.46 72.8525C31.7461 71.165 30.2959 69.293 29.1094 67.2363C27.9229 65.1797 26.9868 62.9517 26.3013 60.5522C25.6157 58.1528 25.2861 55.6875 25.3125 53.1562C25.3125 52.3125 25.3521 51.4688 25.4312 50.625C21.9243 50.625 18.6284 49.9658 15.5435 48.6475C12.4585 47.3291 9.76904 45.5361 7.4751 43.2686C5.18115 41.001 3.36182 38.3247 2.01709 35.2397C0.672363 32.1548 0 28.8457 0 25.3125C0 22.9922 0.303223 20.751 0.909668 18.5889C1.51611 16.4268 2.35986 14.4097 3.44092 12.5376C4.52197 10.6655 5.84033 8.96484 7.396 7.43555C8.95166 5.90625 10.6655 4.58789 12.5376 3.48047C14.4097 2.37305 16.4268 1.51611 18.5889 0.909668C20.751 0.303223 22.9922 0 25.3125 0C27.6592 0 29.9136 0.303223 32.0757 0.909668C34.2378 1.51611 36.2549 2.37305 38.127 3.48047C39.999 4.58789 41.6997 5.90625 43.229 7.43555C44.7583 8.96484 46.0767 10.6787 47.1841 12.5771C48.2915 14.4756 49.1353 16.5059 49.7153 18.668C50.2954 20.8301 50.5986 23.0845 50.625 25.4312C51.4424 25.3521 52.2861 25.3125 53.1562 25.3125ZM25.3125 45.5625C25.4971 45.5625 25.6816 45.5493 25.8662 45.5229C26.0508 45.4966 26.2354 45.4702 26.4199 45.4438C26.8945 43.7827 27.5142 42.2007 28.2788 40.6978C29.0435 39.1948 29.9531 37.7446 31.0078 36.3472C30.085 36.0571 29.1489 35.833 28.1997 35.6748C27.2505 35.5166 26.2881 35.4375 25.3125 35.4375C23.7041 35.4375 22.1353 35.6353 20.606 36.0308C19.0767 36.4263 17.5869 36.9932 16.1367 37.7314L13.8428 33.2227C15.6357 32.3262 17.4946 31.6274 19.4194 31.1265C21.3442 30.6255 23.3086 30.375 25.3125 30.375C26.9473 30.375 28.5425 30.5464 30.0981 30.8892C31.6538 31.2319 33.1963 31.7065 34.7256 32.313C36.2812 30.9419 37.9556 29.7554 39.7485 28.7534C41.5415 27.7515 43.4399 26.9736 45.4438 26.4199L45.5229 25.8662C45.5493 25.6816 45.5625 25.4971 45.5625 25.3125C45.5625 22.5176 45.0352 19.894 43.9805 17.4419C42.9258 14.9897 41.4756 12.854 39.6299 11.0347C37.7842 9.21533 35.6353 7.76514 33.1831 6.68408C30.731 5.60303 28.1074 5.0625 25.3125 5.0625C22.5176 5.0625 19.894 5.58984 17.4419 6.64453C14.9897 7.69922 12.854 9.14941 11.0347 10.9951C9.21533 12.8408 7.76514 14.9897 6.68408 17.4419C5.60303 19.894 5.0625 22.5176 5.0625 25.3125C5.0625 28.1074 5.58984 30.731 6.64453 33.1831C7.69922 35.6353 9.14941 37.771 10.9951 39.5903C12.8408 41.4097 14.9897 42.8599 17.4419 43.9409C19.894 45.022 22.5176 45.5625 25.3125 45.5625ZM53.1562 75.9375C56.2939 75.9375 59.2471 75.3442 62.0156 74.1577C64.7842 72.9712 67.1968 71.3364 69.2534 69.2534C71.3101 67.1704 72.9316 64.7578 74.1182 62.0156C75.3047 59.2734 75.9111 56.3203 75.9375 53.1562C75.9375 50.0186 75.3442 47.0654 74.1577 44.2969C72.9712 41.5283 71.3364 39.1157 69.2534 37.0591C67.1704 35.0024 64.7578 33.3809 62.0156 32.1943C59.2734 31.0078 56.3203 30.4014 53.1562 30.375C50.0186 30.375 47.0654 30.9683 44.2969 32.1548C41.5283 33.3413 39.1157 34.9761 37.0591 37.0591C35.0024 39.1421 33.3809 41.5547 32.1943 44.2969C31.0078 47.0391 30.4014 49.9922 30.375 53.1562C30.375 56.2939 30.9683 59.2471 32.1548 62.0156C33.3413 64.7842 34.9761 67.1968 37.0591 69.2534C39.1421 71.3101 41.5547 72.9316 44.2969 74.1182C47.0391 75.3047 49.9922 75.9111 53.1562 75.9375ZM63.2812 51.8906C62.2266 51.8906 61.3301 51.5215 60.5918 50.7832C59.8535 50.0449 59.4844 49.1484 59.4844 48.0938C59.4844 47.0391 59.8535 46.1426 60.5918 45.4043C61.3301 44.666 62.2266 44.2969 63.2812 44.2969C64.3359 44.2969 65.2324 44.666 65.9707 45.4043C66.709 46.1426 67.0781 47.0391 67.0781 48.0938C67.0781 49.1484 66.709 50.0449 65.9707 50.7832C65.2324 51.5215 64.3359 51.8906 63.2812 51.8906ZM43.0312 51.8906C41.9766 51.8906 41.0801 51.5215 40.3418 50.7832C39.6035 50.0449 39.2344 49.1484 39.2344 48.0938C39.2344 47.0391 39.6035 46.1426 40.3418 45.4043C41.0801 44.666 41.9766 44.2969 43.0312 44.2969C44.0859 44.2969 44.9824 44.666 45.7207 45.4043C46.459 46.1426 46.8281 47.0391 46.8281 48.0938C46.8281 49.1484 46.459 50.0449 45.7207 50.7832C44.9824 51.5215 44.0859 51.8906 43.0312 51.8906ZM53.1562 65.8125C54.29 65.8125 55.3975 65.6675 56.4785 65.3774C57.5596 65.0874 58.5747 64.6523 59.5239 64.0723C60.4731 63.4922 61.3433 62.8066 62.1343 62.0156C62.9253 61.2246 63.5977 60.3281 64.1514 59.3262L68.5415 61.8179C67.7505 63.2153 66.8013 64.4678 65.6938 65.5752C64.5864 66.6826 63.3735 67.6318 62.0552 68.4229C60.7368 69.2139 59.3262 69.8203 57.8232 70.2422C56.3203 70.6641 54.7646 70.875 53.1562 70.875C51.5479 70.875 49.9922 70.6641 48.4893 70.2422C46.9863 69.8203 45.5757 69.2271 44.2573 68.4624C42.939 67.6978 41.7261 66.7485 40.6187 65.6147C39.5112 64.481 38.562 63.2153 37.771 61.8179L42.1611 59.3262C42.7148 60.3281 43.3872 61.2246 44.1782 62.0156C44.9692 62.8066 45.8394 63.479 46.7886 64.0327C47.7378 64.5864 48.7397 65.0215 49.7944 65.3379C50.8491 65.6543 51.9697 65.8125 53.1562 65.8125ZM17.7188 20.8828C16.8486 20.8828 16.1104 20.5796 15.5039 19.9731C14.8975 19.3667 14.5811 18.6152 14.5547 17.7188C14.5547 16.8486 14.8579 16.1104 15.4644 15.5039C16.0708 14.8975 16.8223 14.5811 17.7188 14.5547C18.5889 14.5547 19.3271 14.8579 19.9336 15.4644C20.54 16.0708 20.8564 16.8223 20.8828 17.7188C20.8828 18.5889 20.5796 19.3271 19.9731 19.9336C19.3667 20.54 18.6152 20.8564 17.7188 20.8828ZM32.9062 20.8828C32.0361 20.8828 31.2979 20.5796 30.6914 19.9731C30.085 19.3667 29.7686 18.6152 29.7422 17.7188C29.7422 16.8486 30.0454 16.1104 30.6519 15.5039C31.2583 14.8975 32.0098 14.5811 32.9062 14.5547C33.7764 14.5547 34.5146 14.8579 35.1211 15.4644C35.7275 16.0708 36.0439 16.8223 36.0703 17.7188C36.0703 18.5889 35.7671 19.3271 35.1606 19.9336C34.5542 20.54 33.8027 20.8564 32.9062 20.8828Z" fill="#8C7E6C"/>
</g>
<defs>
<clipPath id="clip0_142_442">
<rect width="81" height="81" fill="white"/>
</clipPath>
</defs>
</svg>
