<svg width="81" height="81" viewBox="0 0 81 81" fill="none" xmlns="http://www.w3.org/2000/svg">
<path fill-rule="evenodd" clip-rule="evenodd" d="M40.5 4.21875C41.1713 4.21875 41.8152 4.48543 42.2899 4.96014C42.7646 5.43484 43.0313 6.07867 43.0313 6.75V10.125C43.0313 10.7963 42.7646 11.4402 42.2899 11.9149C41.8152 12.3896 41.1713 12.6563 40.5 12.6563C39.8287 12.6563 39.1848 12.3896 38.7101 11.9149C38.2354 11.4402 37.9688 10.7963 37.9688 10.125V6.75C37.9688 6.07867 38.2354 5.43484 38.7101 4.96014C39.1848 4.48543 39.8287 4.21875 40.5 4.21875ZM14.8466 14.8466C15.3212 14.3726 15.9646 14.1064 16.6354 14.1064C17.3062 14.1064 17.9495 14.3726 18.4241 14.8466L19.7505 16.1696C20.2118 16.6468 20.4673 17.2861 20.4618 17.9498C20.4564 18.6135 20.1904 19.2485 19.7214 19.718C19.2523 20.1875 18.6175 20.4541 17.9538 20.4601C17.2901 20.4662 16.6506 20.2114 16.173 19.7505L14.8466 18.4241C14.3726 17.9495 14.1064 17.3062 14.1064 16.6354C14.1064 15.9646 14.3726 15.3212 14.8466 14.8466ZM66.1534 14.8466C66.6274 15.3212 66.8937 15.9646 66.8937 16.6354C66.8937 17.3062 66.6274 17.9495 66.1534 18.4241L64.827 19.7505C64.3472 20.1976 63.7125 20.441 63.0567 20.4295C62.401 20.4179 61.7753 20.1522 61.3115 19.6885C60.8478 19.2247 60.5821 18.599 60.5705 17.9433C60.559 17.2875 60.8024 16.6528 61.2495 16.173L62.5759 14.8466C63.0505 14.3726 63.6938 14.1064 64.3646 14.1064C65.0354 14.1064 65.6788 14.3726 66.1534 14.8466ZM40.5 22.7813C35.8007 22.7813 31.2939 24.648 27.971 27.971C24.648 31.2939 22.7813 35.8007 22.7813 40.5C22.7813 45.1993 24.648 49.7061 27.971 53.0291C31.2939 56.352 35.8007 58.2188 40.5 58.2188C45.1993 58.2188 49.7061 56.352 53.0291 53.0291C56.352 49.7061 58.2188 45.1993 58.2188 40.5C58.2188 35.8007 56.352 31.2939 53.0291 27.971C49.7061 24.648 45.1993 22.7813 40.5 22.7813ZM17.7188 40.5C17.7188 34.458 20.1189 28.6635 24.3912 24.3912C28.6635 20.1189 34.458 17.7188 40.5 17.7188C46.542 17.7188 52.3365 20.1189 56.6088 24.3912C60.8811 28.6635 63.2813 34.458 63.2813 40.5C63.2813 46.542 60.8811 52.3365 56.6088 56.6088C52.3365 60.8811 46.542 63.2813 40.5 63.2813C34.458 63.2813 28.6635 60.8811 24.3912 56.6088C20.1189 52.3365 17.7188 46.542 17.7188 40.5ZM4.21875 40.5C4.21875 39.8287 4.48543 39.1848 4.96014 38.7101C5.43484 38.2354 6.07867 37.9688 6.75 37.9688H10.125C10.7963 37.9688 11.4402 38.2354 11.9149 38.7101C12.3896 39.1848 12.6563 39.8287 12.6563 40.5C12.6563 41.1713 12.3896 41.8152 11.9149 42.2899C11.4402 42.7646 10.7963 43.0313 10.125 43.0313H6.75C6.07867 43.0313 5.43484 42.7646 4.96014 42.2899C4.48543 41.8152 4.21875 41.1713 4.21875 40.5ZM68.3438 40.5C68.3438 39.8287 68.6104 39.1848 69.0851 38.7101C69.5598 38.2354 70.2037 37.9688 70.875 37.9688H74.25C74.9213 37.9688 75.5652 38.2354 76.0399 38.7101C76.5146 39.1848 76.7813 39.8287 76.7813 40.5C76.7813 41.1713 76.5146 41.8152 76.0399 42.2899C75.5652 42.7646 74.9213 43.0313 74.25 43.0313H70.875C70.2037 43.0313 69.5598 42.7646 69.0851 42.2899C68.6104 41.8152 68.3438 41.1713 68.3438 40.5ZM61.2495 61.2495C61.7241 60.7755 62.3675 60.5092 63.0383 60.5092C63.709 60.5092 64.3524 60.7755 64.827 61.2495L66.1534 62.5759C66.4021 62.8076 66.6015 63.0871 66.7399 63.3976C66.8782 63.7081 66.9526 64.0432 66.9586 64.3831C66.9646 64.723 66.9021 65.0606 66.7748 65.3758C66.6475 65.691 66.458 65.9773 66.2176 66.2176C65.9773 66.458 65.691 66.6475 65.3758 66.7748C65.0606 66.9021 64.723 66.9646 64.3831 66.9586C64.0432 66.9526 63.7081 66.8782 63.3976 66.7399C63.0871 66.6015 62.8076 66.4021 62.5759 66.1534L61.2495 64.827C60.7755 64.3524 60.5092 63.709 60.5092 63.0383C60.5092 62.3675 60.7755 61.7241 61.2495 61.2495ZM19.7505 61.2495C20.2245 61.7241 20.4908 62.3675 20.4908 63.0383C20.4908 63.709 20.2245 64.3524 19.7505 64.827L18.4241 66.1534C18.1924 66.4021 17.9129 66.6015 17.6024 66.7399C17.2919 66.8782 16.9568 66.9526 16.6169 66.9586C16.277 66.9646 15.9394 66.9021 15.6242 66.7748C15.309 66.6475 15.0227 66.458 14.7824 66.2176C14.542 65.9773 14.3525 65.691 14.2252 65.3758C14.0979 65.0606 14.0354 64.723 14.0414 64.3831C14.0474 64.0432 14.1218 63.7081 14.2601 63.3976C14.3985 63.0871 14.5979 62.8076 14.8466 62.5759L16.1696 61.2495C16.4047 61.0143 16.6838 60.8277 16.991 60.7004C17.2982 60.5731 17.6275 60.5075 17.9601 60.5075C18.2926 60.5075 18.6219 60.5731 18.9291 60.7004C19.2363 60.8277 19.5154 61.0143 19.7505 61.2495ZM40.5 68.3438C41.1713 68.3438 41.8152 68.6104 42.2899 69.0851C42.7646 69.5598 43.0313 70.2037 43.0313 70.875V74.25C43.0313 74.9213 42.7646 75.5652 42.2899 76.0399C41.8152 76.5146 41.1713 76.7813 40.5 76.7813C39.8287 76.7813 39.1848 76.5146 38.7101 76.0399C38.2354 75.5652 37.9688 74.9213 37.9688 74.25V70.875C37.9688 70.2037 38.2354 69.5598 38.7101 69.0851C39.1848 68.6104 39.8287 68.3438 40.5 68.3438Z" fill="#8C7E6C"/>
</svg>
