<svg width="153" height="153" viewBox="0 0 153 153" fill="none" xmlns="http://www.w3.org/2000/svg">
<path fill-rule="evenodd" clip-rule="evenodd" d="M79.597 41.9643C80.2313 41.4639 106.755 20.8312 124.286 41.1579C133.912 52.3142 133.096 63.8944 129.526 75.2323L116.961 111.229C113.286 123.746 110.666 127.612 104.227 133.047C100.408 136.276 96.0987 130.701 91.5629 124.833C87.6327 119.749 83.5336 114.448 79.4377 114.461C75.2716 114.474 71.1055 119.784 67.1212 124.865C62.528 130.723 58.1707 136.279 54.3297 133.047C46.5745 126.519 43.1735 117.502 39.6162 103.027C38.9309 100.241 37.8918 96.8977 36.7411 93.2098C31.928 77.7536 25.2278 56.2507 35.0517 44.3231C47.1865 29.5905 62.257 27.219 79.4345 41.8464L79.597 41.9643ZM71.1183 43.4752C65.1768 39.3952 60.1214 38.0947 55.9139 38.4262C50.747 38.831 45.376 41.8145 39.9764 48.3744C35.9092 53.3087 35.498 61.6408 37.6878 72.5293C38.7301 77.7154 40.2537 82.9652 41.7869 87.9536C42.1184 89.0331 42.451 90.1073 42.7846 91.1762C43.948 94.9055 45.07 98.5106 45.8063 101.504C49.0608 114.757 51.8945 121.878 57.0295 126.895C58.091 125.907 59.4297 124.326 61.2052 122.079L62.0658 120.982C63.8827 118.665 66.0342 115.914 68.2304 113.715C70.5637 111.385 74.4173 108.099 79.4185 108.086C84.442 108.07 88.2862 111.407 90.5716 113.725C92.7359 115.921 94.8588 118.668 96.6502 120.989L97.5012 122.089C99.2384 124.32 100.555 125.901 101.597 126.886C103.659 125.018 104.998 123.459 106.155 121.521C107.653 119.019 109.046 115.551 110.841 109.434L110.94 109.128L123.473 73.2273C125.111 67.9999 125.943 63.2282 125.513 58.7433C125.086 54.3765 123.432 49.9235 119.46 45.3208C112.881 37.6899 104.797 37.5752 97.1665 39.9371C93.3256 41.1292 89.8799 42.9015 87.3554 44.4187C86.4055 44.9861 85.6087 45.5057 84.9903 45.9296L97.2303 54.9311C97.9117 55.4316 98.3663 56.1822 98.4942 57.0179C98.6222 57.8536 98.4129 58.7058 97.9124 59.3872C97.4119 60.0686 96.6613 60.5233 95.8256 60.6512C94.9899 60.7791 94.1377 60.5698 93.4563 60.0693L76.1641 47.3512C75.9224 47.198 75.6913 47.0287 75.4724 46.8444L71.7813 44.1318C71.5293 43.9467 71.3059 43.7254 71.1183 43.4752Z" fill="white" fill-opacity="0.2"/>
</svg>
