<svg width="137" height="137" viewBox="0 0 137 137" fill="none" xmlns="http://www.w3.org/2000/svg">
<path d="M38.5312 70.2125C41.1 69.3562 43.6688 68.5 45.3812 68.5H68.5V59.9375H42.8125C42.8125 54.8 46.2375 51.375 51.375 51.375H85.625C85.625 56.5125 82.2 59.9375 77.0625 59.9375V68.5C81.3438 68.5 85.625 66.7875 87.3375 63.3625L96.7563 47.95C99.325 44.525 102.75 42.8125 106.175 42.8125H111.312V36.8188C111.312 34.25 112.169 32.5375 113.025 29.9688L115.594 23.975C118.163 19.6937 123.3 17.125 128.438 17.125H137L94.1875 77.0625C90.7625 82.2 84.7687 85.625 78.775 85.625H68.5V94.1875H77.0625V111.312H82.2C89.9062 111.312 97.6125 114.738 102.75 119.875H111.312V128.438H17.125V119.875H25.6875C30.825 114.738 38.5312 111.312 46.2375 111.312H51.375V94.1875H59.9375V85.625H46.2375C44.525 85.625 41.9562 86.4812 40.2438 87.3375L25.6875 95.0438C17.9812 99.325 8.5625 99.325 0.856247 95.0438H0L38.5312 70.2125Z" fill="white" fill-opacity="0.2"/>
</svg>
