<svg width="24" height="24" viewBox="0 0 24 24" fill="none" xmlns="http://www.w3.org/2000/svg">
<path fill-rule="evenodd" clip-rule="evenodd" d="M5.78795 14.02C5.8312 14.0333 5.8753 14.0437 5.91995 14.051C6.20287 14.7176 6.4842 15.385 6.76395 16.053C7.26695 17.255 7.77395 18.493 7.88495 18.849C8.02395 19.287 8.16995 19.585 8.32995 19.789C8.41295 19.893 8.50795 19.985 8.61995 20.055C8.67876 20.0906 8.74109 20.1201 8.80595 20.143C9.12595 20.263 9.41795 20.213 9.60095 20.152C9.70839 20.1155 9.8106 20.065 9.90495 20.002L9.90995 20L12.7359 18.238L16.0009 20.74C16.0489 20.7767 16.1009 20.8077 16.1569 20.833C16.5489 21.003 16.9289 21.063 17.2869 21.015C17.643 20.965 17.9259 20.816 18.1369 20.647C18.379 20.4515 18.5721 20.2022 18.7009 19.919L18.7099 19.897L18.7129 19.889L18.7149 19.885V19.883L18.7159 19.882C18.7323 19.8386 18.7457 19.7942 18.7559 19.749L21.7359 4.72399C21.7442 4.67573 21.7489 4.62693 21.7499 4.57799C21.7499 4.13799 21.5839 3.71899 21.1949 3.46599C20.8609 3.24899 20.4899 3.23899 20.2549 3.25699C20.0029 3.27699 19.7689 3.33899 19.6119 3.38899C19.5242 3.41731 19.4375 3.44867 19.3519 3.48299L19.3409 3.48799L2.62695 10.044L2.62495 10.045C2.56827 10.0655 2.51255 10.0885 2.45795 10.114C2.32536 10.1735 2.19821 10.2444 2.07795 10.326C1.85095 10.481 1.32795 10.907 1.41695 11.611C1.48695 12.171 1.87095 12.516 2.10595 12.682C2.23395 12.773 2.35595 12.838 2.44595 12.881C2.48595 12.901 2.57195 12.935 2.60895 12.951L2.61895 12.954L5.78795 14.02ZM19.9259 4.86799H19.9239L19.8979 4.87899L3.16395 11.444L3.13795 11.454L3.12795 11.457C3.09731 11.4688 3.06727 11.4822 3.03795 11.497C3.06591 11.5127 3.09461 11.527 3.12395 11.54L6.26595 12.598C6.32142 12.6185 6.37497 12.644 6.42595 12.674L16.8029 6.59899L16.8129 6.59399C16.8535 6.56986 16.8948 6.54718 16.9369 6.52599C17.0089 6.48899 17.1239 6.43499 17.2539 6.39499C17.3439 6.36699 17.6109 6.28799 17.8989 6.38099C18.0519 6.42872 18.1883 6.51873 18.2924 6.64064C18.3964 6.76255 18.4639 6.91139 18.4869 7.06999C18.5242 7.20874 18.5252 7.35472 18.4899 7.49399C18.4199 7.76899 18.2279 7.98299 18.0529 8.14699C17.9029 8.28699 15.9569 10.163 14.0379 12.015L11.4249 14.535L10.9599 14.985L16.8319 19.487C16.9112 19.5201 16.9973 19.5338 17.0829 19.527C17.1261 19.5211 17.1667 19.503 17.1999 19.475C17.2404 19.4407 17.2752 19.4002 17.3029 19.355L17.3049 19.354L20.1949 4.78099C20.104 4.80337 20.0148 4.83211 19.9279 4.86699L19.9259 4.86799ZM11.4649 17.262L10.2929 16.364L10.0089 18.169L11.4649 17.262ZM9.21795 14.582L10.3829 13.457L12.9959 10.935L13.9689 9.99699L7.44895 13.814L7.48395 13.896C7.89516 14.8674 8.30183 15.8408 8.70395 16.816L8.98695 15.016C9.01278 14.8491 9.09418 14.6968 9.21795 14.582Z" fill="#594D3E"/>
</svg>
