<svg width="52" height="52" viewBox="0 0 52 52" fill="none" xmlns="http://www.w3.org/2000/svg">
<path d="M27.4167 7.44569C27.4167 7.06227 27.2674 6.69455 27.0018 6.42343C26.7361 6.15231 26.3757 6 26 6C25.6243 6 25.2639 6.15231 24.9982 6.42343C24.7326 6.69455 24.5833 7.06227 24.5833 7.44569V22.6052L23.1666 23.6375V16.756C23.1666 14.0091 20.9849 11.7828 18.2932 11.7828C16.8085 11.7828 15.3946 12.5635 14.2046 13.4945C12.9834 14.4544 11.8047 15.7295 10.7592 17.048C8.6738 19.6734 6.9426 22.6746 6.28242 24.2186C5.78374 25.3896 5.1689 27.5726 4.70706 30.0332C4.23955 32.5111 3.90521 35.4025 4.02421 38.0106C4.13754 40.5174 4.68439 43.1861 6.39859 44.7475C8.29696 46.4823 10.9944 46.3551 14.1649 44.7359L19.2509 42.1423C20.4275 41.542 21.417 40.6192 22.1086 39.4773C22.8002 38.3355 23.1666 37.0196 23.1666 35.6772V33.4682C23.1666 33.0848 23.0173 32.717 22.7517 32.4459C22.486 32.1748 22.1256 32.0225 21.7499 32.0225C21.3742 32.0225 21.0138 32.1748 20.7482 32.4459C20.4825 32.717 20.3332 33.0848 20.3332 33.4682V35.6772C20.3332 36.4831 20.1131 37.273 19.6977 37.9584C19.2824 38.6438 18.6881 39.1975 17.9815 39.5574L12.8984 42.151C10.1273 43.5649 8.88914 43.1428 8.28563 42.5905C7.49228 41.8677 6.96244 40.2745 6.85477 37.8776C6.74993 35.5789 7.04744 32.9333 7.48945 30.5768C7.93429 28.2059 8.50097 26.2657 8.88064 25.3723C9.41899 24.1059 11.0057 21.3244 12.9607 18.8667C13.9297 17.6465 14.9526 16.5565 15.933 15.7873C16.9473 14.9893 17.7435 14.6742 18.2932 14.6742C18.8342 14.6742 19.3531 14.8935 19.7357 15.2839C20.1183 15.6743 20.3332 16.2038 20.3332 16.756V25.7019L15.2614 29.4029C14.977 29.6333 14.7902 29.9664 14.7395 30.3333C14.6888 30.7003 14.7781 31.0731 14.989 31.3748C15.1999 31.6765 15.5163 31.884 15.8728 31.9545C16.2293 32.025 16.5987 31.9531 16.9048 31.7536L26 25.1236L35.0952 31.7536C35.2462 31.8709 35.4188 31.9561 35.6027 32.0041C35.7866 32.052 35.9781 32.0618 36.1658 32.0327C36.3535 32.0037 36.5335 31.9365 36.6952 31.835C36.8569 31.7336 36.997 31.6001 37.1072 31.4423C37.2174 31.2845 37.2953 31.1058 37.3365 30.9167C37.3776 30.7276 37.3811 30.532 37.3467 30.3415C37.3123 30.151 37.2407 29.9695 37.1363 29.8077C37.0318 29.646 36.8966 29.5074 36.7386 29.4L31.6668 25.7019V16.756C31.6668 16.2038 31.8817 15.6743 32.2643 15.2839C32.6469 14.8935 33.1658 14.6742 33.7068 14.6742C34.2565 14.6742 35.0527 14.9922 36.067 15.7873C37.0474 16.5565 38.0674 17.6465 39.0421 18.8696C40.9915 21.3272 42.5782 24.1059 43.1194 25.3723C43.499 26.2657 44.0657 28.2059 44.5105 30.5768C44.9526 32.9304 45.2472 35.5789 45.1452 37.8776C45.0376 40.2745 44.5105 41.8677 43.7144 42.5905C43.1109 43.1399 41.8727 43.5649 39.1016 42.151L34.0157 39.5574C33.3096 39.1971 32.7159 38.6432 32.301 37.9578C31.8862 37.2725 31.6665 36.4828 31.6668 35.6772V33.4682C31.6668 33.0848 31.5175 32.717 31.2518 32.4459C30.9862 32.1748 30.6258 32.0225 30.2501 32.0225C29.8744 32.0225 29.514 32.1748 29.2483 32.4459C28.9826 32.717 28.8334 33.0848 28.8334 33.4682V35.6772C28.8334 37.0196 29.1998 38.3355 29.8914 39.4773C30.583 40.6192 31.5725 41.542 32.7491 42.1423L37.8351 44.7359C41.0085 46.3551 43.7002 46.4794 45.6014 44.7475C47.3156 43.1861 47.8624 40.5174 47.9758 38.0106C48.0948 35.4025 47.7604 32.5111 47.2958 30.0332C46.8311 27.5698 46.2191 25.3896 45.7147 24.2157C45.0574 22.6746 43.3262 19.6734 41.2408 17.048C40.1925 15.7295 39.0166 14.4544 37.7954 13.4945C36.6054 12.5635 35.1915 11.7828 33.7068 11.7828C31.0151 11.7828 28.8334 14.0091 28.8334 16.756V23.6375L27.4167 22.6052V7.44569Z" fill="#594D3E"/>
</svg>
