<svg width="48" height="48" viewBox="0 0 48 48" fill="none" xmlns="http://www.w3.org/2000/svg">
<path fill-rule="evenodd" clip-rule="evenodd" d="M28.852 15.5841L31.448 24.4101C31.7525 25.4461 32.3843 26.3557 33.2488 27.0029C34.1133 27.65 35.1641 27.9998 36.244 28.0001H42C42.5304 28.0001 43.0391 27.7893 43.4142 27.4143C43.7893 27.0392 44 26.5305 44 26.0001C44 25.4696 43.7893 24.9609 43.4142 24.5858C43.0391 24.2108 42.5304 24.0001 42 24.0001H36.244C36.0279 24.0002 35.8175 23.9303 35.6445 23.8009C35.4714 23.6714 35.3449 23.4894 35.284 23.2821L31.804 11.4461C30.98 8.64005 27.04 8.55205 26.088 11.3161L17.86 35.2601L14.614 27.1441C14.2428 26.2155 13.6017 25.4196 12.7735 24.8591C11.9453 24.2986 10.968 23.9994 9.968 24.0001H6C5.46957 24.0001 4.96086 24.2108 4.58579 24.5858C4.21071 24.9609 4 25.4696 4 26.0001C4 26.5305 4.21071 27.0392 4.58579 27.4143C4.96086 27.7893 5.46957 28.0001 6 28.0001H9.968C10.168 27.9997 10.3636 28.0594 10.5294 28.1713C10.6952 28.2833 10.8236 28.4424 10.898 28.6281L15.144 39.2441C16.176 41.8261 19.864 41.7341 20.766 39.1041L28.852 15.5841Z" fill="#594D3E"/>
</svg>
