<svg width="52" height="52" viewBox="0 0 52 52" fill="none" xmlns="http://www.w3.org/2000/svg">
<path fill-rule="evenodd" clip-rule="evenodd" d="M28.5383 16.2218C29.8274 16.2218 31.0638 15.7097 31.9754 14.7981C32.887 13.8865 33.3992 12.6501 33.3992 11.3609C33.3992 10.0717 32.887 8.83533 31.9754 7.92373C31.0638 7.01213 29.8274 6.5 28.5383 6.5C27.2491 6.5 26.0127 7.01213 25.1011 7.92373C24.1895 8.83533 23.6773 10.0717 23.6773 11.3609C23.6773 12.6501 24.1895 13.8865 25.1011 14.7981C26.0127 15.7097 27.2491 16.2218 28.5383 16.2218ZM28.5383 14.0552C28.8921 14.0552 29.2424 13.9855 29.5693 13.8501C29.8962 13.7147 30.1932 13.5162 30.4434 13.266C30.6936 13.0159 30.892 12.7188 31.0274 12.392C31.1628 12.0651 31.2325 11.7147 31.2325 11.3609C31.2325 11.0071 31.1628 10.6568 31.0274 10.3299C30.892 10.003 30.6936 9.70598 30.4434 9.45579C30.1932 9.20561 29.8962 9.00715 29.5693 8.87175C29.2424 8.73636 28.8921 8.66667 28.5383 8.66667C27.8237 8.66667 27.1384 8.95052 26.6331 9.45579C26.1279 9.96106 25.844 10.6464 25.844 11.3609C25.844 12.0755 26.1279 12.7608 26.6331 13.266C27.1384 13.7713 27.8237 14.0552 28.5383 14.0552ZM10.8333 30.3333C10.2587 30.3333 9.7076 30.5616 9.30127 30.9679C8.89494 31.3743 8.66667 31.9254 8.66667 32.5V45.5H6.5V32.5C6.5 31.3507 6.95655 30.2485 7.7692 29.4359C8.58186 28.6232 9.68406 28.1667 10.8333 28.1667H18.3202C17.7851 22.7175 18.9269 18.3268 22.2538 16.5414C22.2958 16.5191 22.3393 16.4995 22.3838 16.4829L22.4098 16.4721C23.8247 15.9467 25.3489 15.9759 26.7183 16.6844C28.0204 17.3572 28.8968 18.4936 29.4472 19.6744C29.6501 20.1092 29.839 20.5173 30.0138 20.8986C30.3714 21.6879 30.7419 22.4712 31.1253 23.2483C31.5965 24.1854 31.9377 24.726 32.2346 25.0716C32.4848 25.3641 32.6961 25.5071 32.9669 25.6133C33.2919 25.74 33.8336 25.8613 34.8183 25.8906C35.4579 25.9097 36.0721 26.1453 36.5605 26.5587C37.0489 26.9721 37.3827 27.539 37.5072 28.1667H41.1667C42.3159 28.1667 43.4181 28.6232 44.2308 29.4359C45.0435 30.2485 45.5 31.3507 45.5 32.5V45.5H43.3333V32.5C43.3333 31.9254 43.1051 31.3743 42.6987 30.9679C42.2924 30.5616 41.7413 30.3333 41.1667 30.3333H37.0532C36.7846 30.7191 36.4239 31.0317 36.004 31.243C35.5841 31.4543 35.1181 31.5575 34.6483 31.5434C33.3223 31.5033 32.0667 31.3333 30.9097 30.8804C30.5226 30.729 30.1487 30.546 29.7917 30.3333H27.4885L27.4842 30.3583L31.6875 34.5053C31.9692 34.7837 32.1891 35.1173 32.3332 35.4846L34.749 41.6379C34.8847 41.9836 34.951 42.3527 34.9441 42.724C34.9372 43.0953 34.8572 43.4617 34.7088 43.8021C34.5603 44.1425 34.3462 44.4503 34.0787 44.708C33.8113 44.9657 33.4957 45.1682 33.15 45.3039C32.8043 45.4396 32.4352 45.5059 32.0639 45.499C31.6926 45.4921 31.3263 45.4122 30.9858 45.2637C30.6454 45.1152 30.3376 44.9011 30.0799 44.6337C29.8222 44.3662 29.6197 44.0506 29.484 43.7049L27.2881 38.1095L19.6647 30.5868C19.5845 30.5064 19.5085 30.4218 19.4372 30.3333H10.8333ZM22.4922 30.3333L28.9738 36.7293C29.0817 36.8356 29.1663 36.9633 29.2218 37.1042L31.5012 42.913C31.5328 42.9938 31.5801 43.0676 31.6402 43.1301C31.7004 43.1927 31.7723 43.2428 31.8518 43.2775C31.9314 43.3123 32.0169 43.331 32.1037 43.3327C32.1905 43.3344 32.2767 43.3189 32.3575 43.2873C32.4383 43.2556 32.5121 43.2084 32.5747 43.1482C32.6372 43.088 32.6873 43.0161 32.722 42.9366C32.7568 42.8571 32.7756 42.7715 32.7772 42.6847C32.7789 42.598 32.7635 42.5117 32.7318 42.4309L30.316 36.2776C30.2827 36.1912 30.2314 36.1129 30.1654 36.0479L25.5504 31.4936C25.4236 31.3685 25.3296 31.2141 25.2767 31.0441C25.2238 30.874 25.2136 30.6935 25.2471 30.5186L25.2828 30.3333H22.4922ZM25.6978 28.1667L26.2004 25.5352C26.2425 25.3144 26.3523 25.1122 26.5145 24.9565C26.6767 24.8008 26.8833 24.6995 27.1057 24.6665C27.3281 24.6335 27.5552 24.6706 27.7556 24.7725C27.956 24.8743 28.1197 25.0361 28.2241 25.2352C28.6596 26.065 29.094 26.7692 29.5869 27.3444C30.1752 28.028 30.8458 28.5296 31.6973 28.8622C32.5368 29.1904 33.5194 29.3421 34.7133 29.3778C34.8885 29.3832 35.0587 29.3186 35.1864 29.1985C35.3141 29.0783 35.3888 28.9123 35.3941 28.737C35.3994 28.5618 35.3349 28.3916 35.2147 28.2639C35.0946 28.1362 34.9286 28.0615 34.7533 28.0562C33.6386 28.0237 32.8228 27.8828 32.1782 27.6315C31.5478 27.3845 31.0505 27.0194 30.5901 26.4832C30.1188 25.9339 29.6844 25.2048 29.1893 24.2222C28.7971 23.4272 28.4179 22.6258 28.0518 21.8183L28.0464 21.8053C27.8716 21.4247 27.6839 21.0192 27.4831 20.5887C27.0714 19.7058 26.4821 19.0017 25.7227 18.6084C24.9632 18.2163 24.0977 18.1708 23.2169 18.4838C21.1586 19.6387 19.9442 22.7728 20.4891 28.0757L20.5064 28.1667H25.6978Z" fill="#594D3E"/>
<path fill-rule="evenodd" clip-rule="evenodd" d="M20.1034 33.475C19.9693 33.3463 19.8044 33.2543 19.6245 33.2078C19.4446 33.1613 19.2558 33.1619 19.0761 33.2094C18.8965 33.2569 18.7321 33.3499 18.5988 33.4793C18.4655 33.6087 18.3677 33.7703 18.3148 33.9484L17.2499 37.5429L15.172 40.6726C14.7004 41.3908 14.5324 42.2665 14.7047 43.1083C14.877 43.95 15.3756 44.6892 16.0914 45.1644C16.8073 45.6395 17.6821 45.8118 18.5247 45.6437C19.3673 45.4756 20.109 44.9806 20.5876 44.2671L22.9352 40.7311C23.1141 40.4617 23.2517 40.167 23.3436 39.8569L23.9113 37.9394C23.9677 37.7489 23.9706 37.5466 23.9198 37.3546C23.869 37.1626 23.7663 36.9883 23.6231 36.8506L20.1034 33.475ZM19.28 38.3142L19.8867 36.2689L21.6471 37.9567L21.2658 39.2416C21.2354 39.3456 21.1903 39.4427 21.1304 39.533L18.7828 43.069C18.7041 43.1876 18.6029 43.2895 18.4848 43.3689C18.3667 43.4484 18.2342 43.5038 18.0947 43.532C17.9552 43.5602 17.8115 43.5607 17.6719 43.5334C17.5322 43.5061 17.3993 43.4515 17.2807 43.3729C17.1622 43.2942 17.0602 43.1929 16.9808 43.0749C16.9014 42.9568 16.8459 42.8242 16.8177 42.6848C16.7895 42.5453 16.789 42.4016 16.8163 42.262C16.8436 42.1223 16.8982 41.9894 16.9769 41.8708L19.1446 38.6056C19.2046 38.5154 19.2501 38.4179 19.2811 38.3131" fill="#594D3E"/>
</svg>
