<svg width="52" height="52" viewBox="0 0 52 52" fill="none" xmlns="http://www.w3.org/2000/svg">
<path fill-rule="evenodd" clip-rule="evenodd" d="M24.3023 8.45655C24.324 9.06538 24.4378 9.42396 24.6198 9.63955C24.8852 9.95371 25.1506 10.0653 25.4648 10.0935C25.832 10.126 26.2989 10.0425 26.9175 9.84971C27.2711 9.73698 27.6218 9.61561 27.9694 9.48571C28.2684 9.37738 28.5858 9.26146 28.9022 9.15746C29.6009 8.92671 30.4004 8.71113 31.2097 8.71113C36.4129 8.71113 39.4993 12.7736 41.5317 16.3995C44.0277 20.852 43.9226 26.4106 41.2641 30.7689C39.5156 33.6354 37.2807 36.1184 33.892 37.4357C28.9769 39.3478 23.5527 38.6079 19.0828 36.4011C18.0883 35.9093 16.9194 36.6655 16.9194 37.6275V44.4167H14.7528V37.6275C14.7528 34.8639 17.7861 33.344 20.0427 34.4576C24.0965 36.4596 28.8794 37.0609 33.1066 35.4164C35.8875 34.3352 37.8018 32.2834 39.4148 29.64C41.6649 25.9502 41.7548 21.228 39.6423 17.459C37.6349 13.8786 35.1021 10.8778 31.2108 10.8778C30.7558 10.8778 30.2249 11.0024 29.5814 11.2147C29.2965 11.309 29.0094 11.413 28.7061 11.5224L28.6043 11.5603C28.2695 11.6805 27.9163 11.8073 27.5632 11.9178C26.872 12.1334 26.0747 12.3219 25.2741 12.2515C24.4193 12.1756 23.6155 11.8105 22.9623 11.0349C22.3068 10.257 22.1649 9.29505 22.1378 8.53238C22.1238 8.1413 22.14 7.75238 22.1563 7.41221L22.1638 7.26055C22.1779 6.9713 22.1898 6.72971 22.1898 6.50546L24.3565 6.49463C24.3565 6.78388 24.3413 7.0948 24.3273 7.37863L24.3208 7.5173C24.3045 7.85313 24.2926 8.16296 24.3023 8.45655ZM15.0128 7.04821V6.50005H17.1794V6.90413C17.1773 9.85946 17.1751 12.3511 18.552 14.6716C19.5097 16.2858 20.9267 17.4168 22.5387 18.7038L23.2569 19.279C25.2091 20.8585 25.6294 23.0025 24.9621 24.8799C24.3229 26.6847 22.7088 28.1786 20.7241 28.7474C19.657 29.0518 18.6441 29.2782 17.7276 29.483L17.0993 29.6238C16.0029 29.873 15.0723 30.1113 14.2458 30.4536C12.6858 31.0982 11.4118 32.1458 10.3902 34.6494C9.96841 35.6848 9.751 36.7921 9.74992 37.9102V44.4167H7.58325V37.9102C7.58325 36.5127 7.85517 35.1271 8.38492 33.8315C9.6145 30.8165 11.2991 29.328 13.417 28.4516C14.4278 28.0335 15.5154 27.7626 16.6172 27.5113L17.2791 27.3629C18.2356 27.1586 19.1858 26.9256 20.1283 26.6641C21.4792 26.2774 22.5278 25.2623 22.9211 24.1551C23.2873 23.1216 23.1139 21.9505 21.8941 20.9636C21.6716 20.7845 21.4441 20.6029 21.2116 20.4187C19.6223 19.1555 17.8641 17.7602 16.6887 15.7777C14.9976 12.9275 15.0052 9.8703 15.0128 7.04821Z" fill="#594D3E"/>
</svg>
