<svg width="52" height="52" viewBox="0 0 52 52" fill="none" xmlns="http://www.w3.org/2000/svg">
<path fill-rule="evenodd" clip-rule="evenodd" d="M32.0493 24.7791C33.306 24.7791 34.5323 24.4378 35.5702 23.7998C36.6466 24.4428 37.8805 24.7744 39.1343 24.7574L43.1643 23.4357C44.2986 22.5918 45.0786 21.4229 45.3711 20.1229C45.6636 18.8229 45.4534 17.4731 44.7731 16.2966C44.0938 15.1212 42.9856 14.1906 41.6368 13.663C41.3281 12.4042 40.5524 11.2797 39.4366 10.4737L35.5041 9.23325H35.0599C34.1856 8.08275 32.8727 7.26158 31.3701 6.92683L22.9385 6.5C21.5367 6.60508 20.215 7.13158 19.1869 7.995C18.6988 7.8918 18.2016 7.83844 17.7027 7.83575C16.5065 7.83465 15.3313 8.1505 14.2967 8.75117C13.2838 9.34592 12.4822 10.192 11.9914 11.1887L8.78582 13.234C7.98848 14.2079 7.55948 15.3866 7.56165 16.5956C7.55322 17.1033 7.62787 17.6091 7.78265 18.0928C6.94307 19.0753 6.49023 20.2832 6.4989 21.5247C6.49673 22.9645 7.10665 24.349 8.20407 25.3955C8.29182 26.4258 8.69157 27.4148 9.3589 28.2555C10.0506 29.1141 10.9585 29.7729 11.9892 30.1643C13.1796 30.8303 14.2072 31.7524 14.9977 32.864C15.7547 33.9341 16.2416 35.1714 16.4168 36.4704H24.6902V30.4839C24.6926 29.4082 25.0237 28.3588 25.6392 27.4766C26.2865 26.5529 27.1761 25.8257 28.21 25.3749C28.8058 25.1713 28.951 24.895 29.1308 24.5559C29.25 24.3306 29.3843 24.0771 29.6757 23.7998C29.9282 23.9547 30.1242 24.0923 30.2943 24.2125C30.8219 24.5841 31.0992 24.7791 32.0493 24.7791ZM36.868 22.0404C37.4669 22.3603 38.129 22.5438 38.8072 22.5777L42.1178 21.4923C42.7223 20.9668 43.1058 20.3147 43.2575 19.6398C43.4293 18.8667 43.3007 18.0573 42.8978 17.3756C42.4807 16.6541 41.7712 16.0366 40.8471 15.6748L39.7995 15.2642L39.5319 14.1722C39.3544 13.4836 38.963 12.869 38.4139 12.4172L35.1704 11.3934H33.9863L33.3363 10.5376C32.8207 9.8605 32.0255 9.32533 31.0613 9.07508L22.9775 8.66558C22.0983 8.74788 21.2637 9.09035 20.5801 9.64925L19.7697 10.3285L18.7362 10.1086C18.395 10.0381 18.0479 10.0008 17.6995 9.997C16.8653 9.99917 16.0637 10.2202 15.3931 10.6134C14.7225 11.0067 14.2274 11.5472 13.9338 12.1409L13.6662 12.6826L10.2808 14.8449C9.91032 15.3866 9.72832 15.99 9.7294 16.5858V16.6238C9.72507 16.8946 9.76479 17.1633 9.84857 17.4298L10.2147 18.5781L9.43149 19.4946C8.91365 20.0991 8.66232 20.8076 8.66665 21.5042V21.5215C8.66665 22.334 9.0079 23.1606 9.70015 23.8214L10.2938 24.388L10.3632 25.2038C10.4141 25.7942 10.6448 26.3824 11.0565 26.9024C11.4725 27.4257 12.0597 27.8612 12.7736 28.1374L12.9198 28.1948L13.0563 28.2718C13.2152 28.3613 13.3712 28.4545 13.5243 28.5513L13.5178 28.5556C16.4634 30.3528 17.7125 32.968 18.1372 34.3048H18.8002V26.4041L16.4136 24.2818L14.7929 25.9025C14.5886 26.0998 14.3149 26.209 14.0309 26.2066C13.7468 26.2041 13.4751 26.0902 13.2743 25.8893C13.0734 25.6884 12.9595 25.4167 12.957 25.1327C12.9545 24.8486 13.0637 24.575 13.2611 24.3707L15.2024 22.4293L14.6196 19.2259L11.9806 17.9064C11.8533 17.8428 11.7398 17.7546 11.6466 17.6471C11.5534 17.5396 11.4823 17.4148 11.4373 17.2798C11.3924 17.1448 11.3744 17.0023 11.3846 16.8603C11.3947 16.7184 11.4327 16.5798 11.4963 16.4526C11.56 16.3253 11.6481 16.2119 11.7556 16.1187C11.8631 16.0254 11.9879 15.9543 12.1229 15.9094C12.2579 15.8644 12.4005 15.8465 12.5424 15.8566C12.6843 15.8667 12.8229 15.9047 12.9502 15.9683L15.5252 17.2553L18.6788 15.249L17.6984 12.6328C17.6063 12.3658 17.6221 12.0735 17.7423 11.8181C17.8625 11.5626 18.0777 11.3642 18.3421 11.265C18.6065 11.1659 18.8991 11.1739 19.1577 11.2873C19.4162 11.4007 19.6203 11.6106 19.7264 11.8722L20.7805 14.6835H21.9472L22.5041 13.5687L21.6212 11.5083C21.5627 11.3771 21.5309 11.2357 21.5276 11.0922C21.5243 10.9486 21.5496 10.8059 21.6019 10.6722C21.6543 10.5385 21.7327 10.4166 21.8325 10.3135C21.9324 10.2103 22.0518 10.1281 22.1838 10.0715C22.3157 10.015 22.4576 9.9852 22.6012 9.98394C22.7447 9.98268 22.8871 10.01 23.02 10.0642C23.1529 10.1185 23.2737 10.1986 23.3754 10.2999C23.4771 10.4013 23.5576 10.5218 23.6123 10.6546L24.3728 12.4291L27.3932 12.9783L27.4051 12.9675L29.3583 11.4075C29.5827 11.2279 29.8693 11.1448 30.1549 11.1765C30.4406 11.2082 30.7019 11.3521 30.8815 11.5765C31.0611 11.8009 31.1441 12.0874 31.1124 12.3731C31.0807 12.6587 30.9369 12.9201 30.7125 13.0997L29.4071 14.1429L30.8533 16.003L31.4091 14.8926C31.4991 14.7125 31.6374 14.5611 31.8087 14.4552C31.98 14.3494 32.1773 14.2934 32.3787 14.2935H34.7208C35.0081 14.2935 35.2837 14.4076 35.4869 14.6108C35.69 14.814 35.8042 15.0895 35.8042 15.3768C35.8042 15.6642 35.69 15.9397 35.4869 16.1429C35.2837 16.346 35.0081 16.4602 34.7208 16.4602H33.0482L32.7567 17.0408L34.5659 17.4427C34.6526 17.4622 34.7356 17.4919 34.8151 17.5316L36.3762 18.3116C36.5035 18.3752 36.617 18.4632 36.7103 18.5707C36.8036 18.6782 36.8748 18.803 36.9199 18.938C36.965 19.073 36.983 19.2155 36.973 19.3575C36.963 19.4995 36.9251 19.6381 36.8615 19.7654C36.7979 19.8927 36.7098 20.0063 36.6024 20.0996C36.4949 20.1929 36.3701 20.2641 36.2351 20.3092C35.9624 20.4002 35.6648 20.3792 35.4076 20.2508L33.9647 19.5293L30.5814 18.7774C30.3354 18.7224 30.1162 18.5834 29.9617 18.3842L27.482 15.197L24.4779 14.651C24.4346 14.6871 24.3876 14.7196 24.3371 14.7485L23.7012 16.0236V16.6357H24.96C25.1281 16.6358 25.2939 16.6752 25.4442 16.7505L28.5675 18.3116C28.6948 18.3752 28.8084 18.4632 28.9017 18.5707C28.995 18.6782 29.0662 18.803 29.1112 18.938C29.1563 19.073 29.1744 19.2155 29.1643 19.3575C29.1543 19.4995 29.1164 19.6381 29.0528 19.7654C28.9892 19.8927 28.9012 20.0063 28.7937 20.0996C28.6862 20.1929 28.5614 20.2641 28.4264 20.3092C28.2914 20.3542 28.1489 20.3723 28.0069 20.3623C27.8649 20.3522 27.7263 20.3143 27.599 20.2508L24.7043 18.8023H23.7012V20.4523C23.7012 20.7396 23.587 21.0151 23.3839 21.2183C23.1807 21.4214 22.9051 21.5356 22.6178 21.5356C22.3305 21.5356 22.055 21.4214 21.8518 21.2183C21.6486 21.0151 21.5345 20.7396 21.5345 20.4523V16.8513H20.1998L16.7862 19.0233L17.3702 22.2333L20.6039 25.1084C20.7184 25.2101 20.81 25.3349 20.8728 25.4746C20.9355 25.6142 20.9679 25.7656 20.9679 25.9188V34.3059H22.5257V30.4417C22.5257 27.5145 24.1605 25.7183 25.0532 24.8679C25.7682 24.1876 26.8407 23.6145 27.2881 23.4119C27.3769 23.2137 27.6792 22.6969 28.1807 22.2235L29.3995 21.0676C30.7407 21.8346 31.7817 22.6038 31.7817 22.6038C31.7817 22.6038 33.1695 22.5279 33.8 22.2744C34.3048 22.0708 35.1845 21.5063 35.5604 21.2496L36.868 22.0404Z" fill="#594D3E"/>
<path d="M16.25 41.1667H24.9167V39H16.25V41.1667ZM24.9167 45.5H16.25V43.3333H24.9167V45.5Z" fill="#594D3E"/>
</svg>
