<svg width="57" height="57" viewBox="0 0 57 57" fill="none" xmlns="http://www.w3.org/2000/svg">
<path fill-rule="evenodd" clip-rule="evenodd" d="M10.6615 9.92036C22.2623 6.19305 34.7395 6.19388 46.3399 9.92274C49.2885 10.8715 50.5911 14.136 49.4796 16.8993L41.9248 35.6737L41.8416 35.8803C41.5721 36.5572 41.2705 37.3124 40.8109 37.8907C40.2136 38.6436 39.4049 39.0616 38.3029 39.1804C38.1462 39.2005 37.9871 39.1892 37.8349 39.1471C37.6826 39.105 37.5403 39.0329 37.4162 38.9351C37.2922 38.8374 37.1889 38.7158 37.1124 38.5776C37.0359 38.4394 36.9878 38.2873 36.9708 38.1302C36.9538 37.9732 36.9683 37.8143 37.0135 37.663C37.0587 37.5116 37.1336 37.3708 37.2339 37.2487C37.3341 37.1267 37.4577 37.0259 37.5975 36.9522C37.7372 36.8785 37.8902 36.8334 38.0476 36.8196C38.614 36.7579 38.8052 36.5975 38.9513 36.4135C39.184 36.1202 39.3574 35.6891 39.7006 34.8377L47.2768 16.0122C47.9205 14.4091 47.1308 12.6718 45.6131 12.1837C34.4853 8.60678 22.5165 8.60595 11.3882 12.1814C9.87058 12.6694 9.0797 14.4067 9.72451 16.0099L17.3008 34.846C17.6404 35.6915 17.8126 36.119 18.0441 36.4123C18.1902 36.5964 18.3802 36.7567 18.9466 36.8172C19.2599 36.8514 19.5467 37.0086 19.744 37.2542C19.9413 37.4999 20.0329 37.8138 19.9988 38.127C19.9646 38.4403 19.8074 38.7271 19.5618 38.9244C19.3161 39.1217 19.0022 39.2133 18.689 39.1792C17.5881 39.0592 16.7806 38.6401 16.1833 37.8872C15.7261 37.3101 15.4257 36.5572 15.1561 35.8803L15.073 35.6713L7.52051 16.8969C6.40901 14.1324 7.71289 10.868 10.6615 9.92036ZM22.1375 14.3284C25.1753 13.0697 28.5182 12.7402 31.7434 13.3815C34.9685 14.0228 37.9311 15.6061 40.2563 17.9312C40.4792 18.1541 40.6043 18.4563 40.6043 18.7714C40.6043 19.0865 40.4792 19.3887 40.2563 19.6115C40.0335 19.8344 39.7313 19.9596 39.4162 19.9596C39.1011 19.9596 38.7988 19.8344 38.576 19.6115C35.9037 16.9394 32.2792 15.4382 28.5001 15.4382C24.7209 15.4382 21.0965 16.9394 18.4241 19.6115C18.2013 19.8344 17.8991 19.9596 17.584 19.9596C17.2689 19.9596 16.9667 19.8344 16.7438 19.6115C16.521 19.3887 16.3958 19.0865 16.3958 18.7714C16.3958 18.4563 16.521 18.1541 16.7438 17.9312C18.2877 16.3878 20.1205 15.1635 22.1375 14.3284ZM21.387 20.1792C23.4459 18.6387 25.9492 17.8082 28.5207 17.8125C31.0921 17.8168 33.5927 18.6556 35.6465 20.2029C35.8981 20.3925 36.0641 20.6743 36.108 20.9863C36.1519 21.2983 36.07 21.615 35.8804 21.8666C35.6908 22.1183 35.409 22.2843 35.097 22.3281C34.785 22.372 34.4683 22.2901 34.2167 22.1005C32.5738 20.8626 30.5735 20.1914 28.5165 20.1878C26.4595 20.1841 24.4568 20.8483 22.8096 22.0804C22.685 22.1775 22.5424 22.2488 22.3899 22.2901C22.2375 22.3314 22.0783 22.3419 21.9218 22.321C21.7652 22.3 21.6145 22.2481 21.4782 22.1681C21.342 22.0882 21.2231 21.9819 21.1285 21.8554C21.0339 21.729 20.9654 21.5849 20.9272 21.4317C20.8889 21.2784 20.8816 21.1191 20.9056 20.963C20.9297 20.8069 20.9847 20.6572 21.0673 20.5226C21.15 20.388 21.2586 20.2713 21.387 20.1792ZM22.5626 27.3873V29.5343C22.6204 29.5106 22.6793 29.488 22.7395 29.4666C24.0505 28.9738 25.9731 28.5 28.5001 28.5C31.0271 28.5 32.9496 28.975 34.2606 29.4666L34.4376 29.5343V27.3885C34.1097 27.2194 33.7723 27.0695 33.427 26.9396C32.363 26.5418 30.7231 26.125 28.5001 26.125C26.2771 26.125 24.6371 26.5406 23.5731 26.9396C23.1433 27.1011 22.8072 27.2591 22.5626 27.3873ZM36.3376 25.7699C36.4851 25.8805 36.6048 26.024 36.6872 26.1889C36.7697 26.3538 36.8126 26.5356 36.8126 26.7199V31.8131C36.8124 32.9852 36.4653 34.1309 35.8151 35.1061L35.0361 36.2757C34.6461 36.8605 34.4379 37.5476 34.4376 38.2505V42.7251C34.4379 44.0938 33.9652 45.4207 33.0996 46.481C32.234 47.5413 31.0287 48.27 29.6876 48.5438V48.6875C29.6875 48.8956 29.7426 49.1 29.8471 49.2799C29.9517 49.4598 30.1021 49.6088 30.283 49.7117C30.4638 49.8147 30.6687 49.8678 30.8768 49.8658C31.0849 49.8639 31.2888 49.8068 31.4676 49.7004L33.9828 48.2077C35.1604 47.5083 36.5658 47.3 37.8957 47.6277C39.2256 47.9553 40.3733 48.7928 41.0911 49.9593L41.3868 50.4402C41.4685 50.5731 41.5233 50.7208 41.5479 50.8748C41.5726 51.0288 41.5667 51.1862 41.5305 51.3379C41.4943 51.4896 41.4286 51.6328 41.3371 51.7591C41.2457 51.8854 41.1302 51.9925 40.9973 52.0742C40.8645 52.156 40.7168 52.2107 40.5628 52.2353C40.4088 52.26 40.2514 52.2541 40.0997 52.2179C39.9479 52.1817 39.8048 52.116 39.6785 52.0245C39.5521 51.9331 39.445 51.8176 39.3633 51.6847L39.0676 51.205C38.6766 50.5695 38.0514 50.1132 37.3269 49.9346C36.6025 49.756 35.8368 49.8693 35.1952 50.2502L32.6801 51.7429C30.311 53.1489 27.3126 51.4425 27.3126 48.6875V48.5438C25.9715 48.27 24.7661 47.5413 23.9005 46.481C23.0349 45.4207 22.5623 44.0938 22.5626 42.7251V38.2505C22.5625 37.5472 22.3543 36.8597 21.9641 36.2746L21.1851 35.1049C20.5351 34.1301 20.188 32.9847 20.1876 31.8131V26.7187C20.1876 26.5344 20.2305 26.3526 20.3129 26.1877C20.3954 26.0228 20.5151 25.8793 20.6626 25.7687L20.6661 25.7664L20.6721 25.7616L20.684 25.7533C20.7329 25.7165 20.7832 25.6817 20.8348 25.6488C20.9666 25.5632 21.1013 25.482 21.2385 25.4054C21.7203 25.1374 22.2222 24.9071 22.7395 24.7166C24.0505 24.2238 25.9731 23.75 28.5001 23.75C31.0271 23.75 32.9496 24.225 34.2606 24.7166C34.915 24.9612 35.4161 25.2106 35.7616 25.4054C35.9517 25.5128 36.1368 25.6289 36.3162 25.7533L36.3281 25.7616L36.334 25.7664L36.3376 25.7699ZM34.4233 32.1325C34.0996 31.9663 33.7665 31.8188 33.4258 31.6908C32.3642 31.2918 30.7243 30.875 28.5001 30.875C26.2759 30.875 24.6371 31.2906 23.5731 31.6896C23.2329 31.8177 22.9002 31.9652 22.5768 32.1314C22.6303 32.7237 22.8311 33.2932 23.1611 33.7879L23.9401 34.9576C24.5901 35.9324 24.9371 37.0777 24.9376 38.2494V42.7239C24.9376 43.6687 25.3129 44.5748 25.981 45.2429C26.6491 45.911 27.5552 46.2864 28.5001 46.2864C29.4449 46.2864 30.351 45.911 31.0191 45.2429C31.6872 44.5748 32.0626 43.6687 32.0626 42.7239V38.2494C32.0628 37.0773 32.4099 35.9316 33.0601 34.9564L33.8391 33.7867C34.169 33.292 34.3699 32.7225 34.4233 32.1302M28.5001 36.8125C28.815 36.8125 29.1171 36.9376 29.3398 37.1603C29.5625 37.383 29.6876 37.685 29.6876 38V42.75C29.6876 43.0649 29.5625 43.367 29.3398 43.5897C29.1171 43.8124 28.815 43.9375 28.5001 43.9375C28.1851 43.9375 27.8831 43.8124 27.6604 43.5897C27.4377 43.367 27.3126 43.0649 27.3126 42.75V38C27.3126 37.685 27.4377 37.383 27.6604 37.1603C27.8831 36.9376 28.1851 36.8125 28.5001 36.8125Z" fill="#594D3E"/>
</svg>
