<svg width="52" height="52" viewBox="0 0 52 52" fill="none" xmlns="http://www.w3.org/2000/svg">
<path d="M21.6363 13C21.9765 9.95367 19.5108 6.5 14.2371 6.5C8.76845 6.5 4.33545 11.8343 4.33545 18.4167C4.33545 24.999 7.66562 30.3333 13.1365 30.3333C16.6378 30.3333 18.4924 27.6163 18.1024 25.2612" stroke="#594D3E" stroke-width="3.25" stroke-linecap="round" stroke-linejoin="round"/>
<path d="M15.1666 17.3333C18.4166 17.3333 22.75 18.4079 22.75 25.2199C22.75 34.2333 18.4166 37.6133 21.6666 45.4999M36.8333 17.3333C33.5833 17.3333 29.25 18.4079 29.25 25.2199C29.25 34.2333 33.5833 37.6133 30.3333 45.4999" stroke="#594D3E" stroke-width="3.25" stroke-linecap="round" stroke-linejoin="round"/>
<path d="M14.3217 13C14.7637 14.2372 15.5133 17.2098 14.9847 19.1902C14.7637 20.0157 14.0573 21.6667 13 21.6667M30.3637 13C30.0235 9.95367 32.4892 6.5 37.7628 6.5C43.2315 6.5 47.6645 11.8343 47.6645 18.4167C47.6645 24.999 44.3343 30.3333 38.8635 30.3333C35.191 30.3333 33.3298 27.3433 33.9712 24.9167" stroke="#594D3E" stroke-width="3.25" stroke-linecap="round" stroke-linejoin="round"/>
<path d="M37.6783 13C37.2363 14.2372 36.4867 17.2098 37.0153 19.1902C37.2363 20.0157 37.9427 21.6667 39 21.6667" stroke="#594D3E" stroke-width="3.25" stroke-linecap="round" stroke-linejoin="round"/>
</svg>
