<svg width="52" height="52" viewBox="0 0 52 52" fill="none" xmlns="http://www.w3.org/2000/svg">
<path d="M13.1668 38.9999C13.1668 43.7883 15.6563 47.6666 20.1651 47.6666C24.6739 47.6666 28.3334 44.4166 29.4991 38.9999C30.0603 36.4021 31.2064 34.8334 33.0004 33.5833C37.6674 30.3333 41.1666 25.3326 41.1666 19.4999C41.1666 17.5082 40.7743 15.536 40.0121 13.6959C39.2499 11.8558 38.1327 10.1838 36.7244 8.77547C35.316 7.36711 33.6441 6.24994 31.804 5.48775C29.9638 4.72555 27.9916 4.33325 25.9999 4.33325C24.0082 4.33325 22.036 4.72555 20.1959 5.48775C18.3558 6.24994 16.6838 7.36711 15.2755 8.77547C13.8671 10.1838 12.7499 11.8558 11.9877 13.6959C11.2255 15.536 10.8333 17.5082 10.8333 19.4999" stroke="#594D3E" stroke-width="3.25" stroke-linecap="round" stroke-linejoin="round"/>
<path d="M19.5 32.5C22.5008 32.5 24.934 30.3182 24.934 27.625C24.934 24.9318 22.5008 22.75 19.5 22.75C19.5 18.3798 20.5053 13 26.0217 13C29.9 13 32.175 15.977 32.5 19.825" stroke="#594D3E" stroke-width="3.25" stroke-linecap="round" stroke-linejoin="round"/>
</svg>
