<svg width="52" height="52" viewBox="0 0 52 52" fill="none" xmlns="http://www.w3.org/2000/svg">
<path d="M34.6667 19.5C33.6668 26 31.4167 31.9583 26.5417 31.9583C21.6667 31.9583 20.0417 26.5417 18.4167 19.5C16.7917 12.4583 18.4167 6.5 26.5417 6.5C34.6667 6.5 35.6666 13 34.6667 19.5Z" stroke="#594D3E" stroke-width="3"/>
<path d="M35.2084 13.5418C37.1042 11.7738 39.0358 11.1909 42.0767 11.3794C46.6397 11.6633 47.6667 14.7854 47.6667 19.4524M47.6667 19.4524C47.6667 24.1205 45.8781 28.365 42.314 27.4041C38.7498 26.4443 39.2481 22.6526 40.9154 20.8749C42.5815 19.0971 45.4979 18.3724 47.6667 19.4524ZM17.875 13.0001C15.9575 11.3274 13.6934 11.1909 10.9276 11.3805C6.77846 11.6644 4.33337 14.8331 4.33337 19.5001M4.33337 19.5001C4.33337 24.1671 7.47179 28.3639 10.712 27.4041C13.9523 26.4443 13.5005 22.6515 11.985 20.8738C10.4683 19.0993 6.30504 18.4189 4.33337 19.5001Z" stroke="#594D3E" stroke-width="3" stroke-linecap="round"/>
<path d="M21.6667 29.25V46.5833M31.4167 29.25V46.5833" stroke="#594D3E" stroke-width="3" stroke-linecap="round" stroke-linejoin="round"/>
</svg>
