<svg width="48" height="48" viewBox="0 0 48 48" fill="none" xmlns="http://www.w3.org/2000/svg">
<path d="M17.4333 38.487C18.2405 38.487 18.9268 38.208 19.4922 37.6501C20.0561 37.0938 20.3381 36.4175 20.3381 35.6211C20.3381 33.784 19.7881 32.1485 18.6882 30.7148C17.5867 29.2827 16.2001 28.1027 14.5285 27.175V35.6211C14.5285 36.4175 14.8113 37.0946 15.3767 37.6524C15.9406 38.2088 16.6262 38.487 17.4333 38.487ZM25.5667 38.487C26.3738 38.487 27.0601 38.208 27.6256 37.6501C28.1895 37.0938 28.4715 36.4175 28.4715 35.6211V27.175C26.7999 28.1027 25.4133 29.2827 24.3118 30.7148C23.2119 32.1485 22.6619 33.784 22.6619 35.6211C22.6619 36.4175 22.9446 37.0946 23.5101 37.6524C24.074 38.2088 24.7595 38.487 25.5667 38.487ZM1.01551 46L0.276535 43.8495C1.78392 43.1082 3.0171 42.0177 3.97606 40.5779C4.93502 39.1381 5.41373 37.5623 5.41218 35.8504V14.0083C4.30449 13.0148 3.29828 11.9227 2.39354 10.732C1.4888 9.54292 0.69095 8.26897 0 6.91019L2.15418 6.00229C3.99 9.65832 6.63916 12.5769 10.1017 14.758C13.5657 16.939 17.3651 18.0296 21.5 18.0296C25.6658 18.0296 29.473 16.939 32.9216 14.758C36.3701 12.5769 39.0116 9.65755 40.8458 6L43 6.91019C42.3091 8.26897 41.5089 9.54292 40.5995 10.732C39.6901 11.9212 38.6862 13.0132 37.5878 14.0083V35.8504C37.5878 37.5623 38.0572 39.1381 38.9961 40.5779C39.9349 42.0177 41.158 43.1082 42.6654 43.8495L41.9264 46C39.9062 45.1288 38.2912 43.7784 37.0812 41.9489C35.8697 40.1178 35.264 38.085 35.264 35.8504V15.9043C33.2702 17.3013 31.109 18.3865 28.7805 19.1599C26.4536 19.9348 24.0268 20.3222 21.5 20.3222C18.9732 20.3222 16.5441 19.9348 14.2125 19.1599C11.8809 18.3849 9.7221 17.2997 7.736 15.9043V35.8504C7.736 38.085 7.12097 40.1178 5.89089 41.9489C4.66081 43.7799 3.03569 45.1303 1.01551 46ZM17.4333 40.7796C15.974 40.7796 14.7377 40.2798 13.7245 39.2802C12.7113 38.2806 12.2047 37.0609 12.2047 35.6211V23.8804L12.9297 24.0524C14.8601 24.6194 16.5735 25.509 18.07 26.721C19.5666 27.9331 20.7099 29.3393 21.5 30.9395C22.2901 29.3102 23.4257 27.8964 24.9067 26.6981C26.3893 25.5013 28.1113 24.6049 30.0726 24.0088L30.7953 23.8346V35.6211C30.7953 37.0609 30.2887 38.2806 29.2755 39.2802C28.2623 40.2798 27.026 40.7796 25.5667 40.7796C24.7348 40.7796 23.9671 40.6023 23.2638 40.2477C22.5589 39.8931 21.971 39.4193 21.5 38.8263C21.029 39.4208 20.4411 39.8946 19.7362 40.2477C19.0329 40.6023 18.2652 40.7796 17.4333 40.7796Z" fill="#594D3E"/>
</svg>
