<svg width="52" height="52" viewBox="0 0 52 52" fill="none" xmlns="http://www.w3.org/2000/svg">
<path d="M26 43.3766C25.6562 43.3766 25.311 43.3073 24.9643 43.1686C24.6177 43.0314 24.3216 42.8248 24.076 42.5489L10.3913 28.8123C9.12744 27.5484 8.16256 26.1249 7.49667 24.5418C6.83222 22.9586 6.5 21.338 6.5 19.6798C6.5 16.5699 7.47356 13.9294 9.42067 11.7584C11.3678 9.58742 13.7583 8.5012 16.5923 8.49976C18.0743 8.49976 19.5 8.80814 20.8693 9.42492C22.2372 10.0417 23.4614 10.9084 24.5418 12.0249L26 13.5676L27.3758 12.1094C28.4751 10.9365 29.7158 10.0417 31.0982 9.42492C32.4805 8.80814 33.8989 8.49976 35.3535 8.49976C38.1875 8.49976 40.5874 9.58598 42.5533 11.7584C44.5192 13.9309 45.5014 16.5525 45.5 19.6234C45.5 21.3105 45.1656 22.9456 44.4968 24.5288C43.8266 26.1119 42.8639 27.5354 41.6087 28.7993L27.872 42.5511C27.5961 42.8255 27.3014 43.0314 26.988 43.1686C26.6746 43.3058 26.3452 43.3744 26 43.3744M28.1667 18.4166C28.3617 18.4166 28.5379 18.4585 28.6953 18.5423C28.8542 18.626 28.9821 18.7423 29.0788 18.8911L33.0547 24.9166H41.8795C42.3822 24.0803 42.7592 23.2143 43.0105 22.3188C43.2618 21.4232 43.3738 20.5255 43.3463 19.6256C43.3016 17.1339 42.5122 15.0221 40.9782 13.2903C39.4456 11.5569 37.5707 10.6903 35.3535 10.6903C34.1792 10.6903 33.0359 10.9286 31.9237 11.4053C30.8114 11.879 29.848 12.5731 29.0333 13.4874L27.0703 15.5999C26.9187 15.7877 26.754 15.9177 26.5763 15.9899C26.3987 16.0621 26.2066 16.0975 26 16.0961C25.7934 16.0946 25.5948 16.052 25.4042 15.9683C25.2135 15.8845 25.0373 15.7617 24.8755 15.5999L22.9125 13.4874C22.0993 12.5731 21.1387 11.8747 20.0308 11.3923C18.9215 10.9084 17.7753 10.6664 16.5923 10.6664C14.3751 10.6664 12.5002 11.5367 10.9677 13.2773C9.43511 15.0178 8.66811 17.1339 8.66667 19.6256C8.66667 20.5529 8.79017 21.4579 9.03717 22.3404C9.28417 23.223 9.64528 24.0817 10.1205 24.9166H19.5C19.695 24.9166 19.8647 24.9585 20.0092 25.0423C20.1536 25.126 20.2742 25.2423 20.371 25.3911L23.517 30.0841L27.1505 19.1836C27.2386 18.9453 27.3686 18.7575 27.5405 18.6203C27.7124 18.483 27.9211 18.4151 28.1667 18.4166ZM28.483 21.9179L24.8495 32.8163C24.7614 33.056 24.6227 33.2438 24.4335 33.3796C24.2443 33.5154 24.0262 33.5833 23.7792 33.5833C23.5856 33.5833 23.4166 33.5414 23.2722 33.4576C23.1277 33.3738 23.0064 33.2575 22.9082 33.1088L18.8912 27.0833H11.7412L25.6208 41.0041C25.6931 41.0763 25.7566 41.1218 25.8115 41.1406C25.8664 41.1594 25.9292 41.168 26 41.1666C26.0708 41.1651 26.1343 41.1565 26.1907 41.1406C26.247 41.1247 26.3098 41.0792 26.3792 41.0041L40.2458 27.0833H32.5C32.3064 27.0833 32.1302 27.0349 31.9713 26.9381C31.8124 26.8413 31.6803 26.7178 31.5748 26.5676L28.483 21.9179Z" fill="#594D3E"/>
</svg>
