<svg width="46" height="46" viewBox="0 0 46 46" fill="none" xmlns="http://www.w3.org/2000/svg">
<path d="M17.25 27.2837V32.5833C17.25 35.1249 18.2597 37.5625 20.0569 39.3597C21.8541 41.1569 24.2917 42.1666 26.8333 42.1666H28.5238C30.2436 42.1663 31.9163 41.6045 33.2876 40.5666C34.659 39.5288 35.654 38.0716 36.1215 36.4166" stroke="#594D3E" stroke-width="3"/>
<path d="M10.4056 5.75H10.2293C9.62937 5.75 9.32846 5.75 9.07737 5.773C7.73268 5.89194 6.4727 6.48022 5.51815 7.43477C4.56359 8.38933 3.97532 9.6493 3.85637 10.994C3.83337 11.247 3.83337 11.546 3.83337 12.144V13.869C3.83337 17.4273 5.24691 20.8399 7.76302 23.356C10.2791 25.8721 13.6917 27.2857 17.25 27.2857C18.9401 27.2857 20.6136 26.9527 22.175 26.3059C23.7364 25.6591 25.1551 24.711 26.3501 23.5159C27.5451 22.3207 28.4929 20.9019 29.1395 19.3404C29.7861 17.7789 30.1188 16.1053 30.1185 14.4152V12.1459C30.1185 11.546 30.1185 11.2451 30.0975 10.994C29.9785 9.6493 29.3902 8.38933 28.4357 7.43477C27.4811 6.48022 26.2212 5.89194 24.8765 5.773C24.6235 5.75 24.3225 5.75 23.7226 5.75H23.5482" stroke="#594D3E" stroke-width="3" stroke-linecap="round"/>
<path d="M36.4167 36.4165C39.5924 36.4165 42.1667 33.8421 42.1667 30.6665C42.1667 27.4909 39.5924 24.9165 36.4167 24.9165C33.2411 24.9165 30.6667 27.4909 30.6667 30.6665C30.6667 33.8421 33.2411 36.4165 36.4167 36.4165Z" stroke="#594D3E" stroke-width="3"/>
<path d="M23 3.83325V7.66658M11.5 3.83325V7.66658" stroke="#594D3E" stroke-width="3" stroke-linecap="round"/>
</svg>
