<svg width="465" height="643" viewBox="0 0 465 643" fill="none" xmlns="http://www.w3.org/2000/svg">
<path fill-rule="evenodd" clip-rule="evenodd" d="M363.575 0H333.014C333.148 0.133718 333.282 0.267523 333.416 0.401413C334.062 1.046 334.67 1.65463 335.264 2.25L335.299 2.28526L335.302 2.28849L335.32 2.30641L335.34 2.32581C336.576 3.56361 337.758 4.74804 339.108 6.08411C348.087 14.9706 363.47 33.5896 370.31 43.6215C371.98 46.0721 373.673 48.5057 375.366 50.9386L375.367 50.94C379.986 57.5791 384.601 64.2128 388.746 71.1726C389.645 72.6815 390.559 74.1869 391.476 75.6953L391.476 75.6961L391.476 75.6967L391.477 75.6973C394.185 80.1552 396.909 84.6389 399.282 89.3158C400.41 91.5396 401.601 93.7442 402.795 95.9523L402.795 95.9526L402.795 95.953L402.795 95.9534L402.796 95.9542L402.796 95.9545C405.043 100.113 407.297 104.284 409.15 108.62C410.141 110.939 411.144 113.103 412.141 115.255C413.503 118.193 414.854 121.109 416.15 124.364C416.729 125.82 417.298 127.229 417.858 128.619L417.859 128.619C419.508 132.707 421.089 136.627 422.678 141.073C431.12 164.704 437.76 189.245 440.72 214.982L440.795 215.635C441.938 225.564 443.204 236.573 443.146 246.662C443.134 248.68 443.258 250.387 443.385 252.145C443.514 253.926 443.647 255.76 443.647 258.023C443.647 260.929 443.527 263.42 443.406 265.919L443.406 265.92C443.279 268.556 443.151 271.199 443.164 274.344L442.025 290.505C441.697 293.072 441.369 295.996 441.045 298.879L441.044 298.887C440.783 301.206 440.526 303.499 440.274 305.56C439.334 313.244 437.092 324.854 434.764 336.906L434.764 336.908C431.378 354.439 427.812 372.906 427.812 381.582C427.812 388.532 440.78 390.609 445.223 384.639C447.28 381.875 448.851 373.631 450.019 367.507C450.415 365.432 450.764 363.6 451.07 362.307C453.434 352.324 455.661 342.223 457.711 331.872C468.826 275.763 466.445 227.866 454.326 172.234C451.491 159.221 447.555 146.43 443.584 134.526C438.648 119.725 433.106 105.385 426.163 91.6285C420.83 81.0604 415.381 70.6471 409.347 60.4821C408.51 59.0721 407.658 57.7513 406.819 56.451L406.818 56.4504L406.818 56.4499L406.818 56.4494L406.817 56.4489L406.817 56.4486C406.052 55.2631 405.298 54.0945 404.576 52.8909L394.852 38.3855C393.573 36.4505 392.435 34.9511 391.186 33.3058L391.183 33.3017C390.753 32.7351 390.31 32.1512 389.843 31.5262C389.453 31.003 389.139 30.5436 388.836 30.1008C388.387 29.4436 387.963 28.823 387.35 28.0848C385.214 25.5105 383.141 22.9157 381.073 20.3266C376.875 15.0728 372.697 9.84261 368.051 4.85526L363.575 0ZM0 93.7572L0 72.1237C16.115 74.1625 31.8465 79.84 46.7062 88.6495C48.9971 90.0077 50.9002 91.3529 52.8632 92.7405C53.8203 93.417 54.7917 94.1037 55.8293 94.8068C56.8753 95.5157 57.6533 96.1371 58.4761 96.7943L58.4762 96.7944C59.0333 97.2394 59.6109 97.7008 60.3062 98.2168C61.7824 99.3126 63.0585 100.277 64.4528 101.464L64.7427 101.711C69.7917 106.01 71.9861 107.879 74.0461 107.741C75.6296 107.635 77.1336 106.343 79.7939 104.057C80.887 103.118 82.1752 102.012 83.7444 100.751C107.564 81.6081 132.388 71.236 164.139 71.236C177.79 71.236 199.54 76.6498 211.54 83.9623C212.736 84.6913 213.859 85.3731 214.918 86.0163L214.922 86.0189C228.458 94.2378 231.626 96.1617 245.323 109.824C249.176 113.667 252.407 117.812 255.586 122.237C260.962 129.72 265.096 137.252 269.266 145.531C275.088 157.089 280.925 176.417 280.925 193.533C280.925 226.327 275.115 246.647 263.89 273.632C260.584 281.578 256.347 289.896 251.95 297.189C245.367 308.109 238.425 318.527 230.947 328.935C219.545 344.806 204.003 362.48 190.132 376.361C189.471 377.022 188.873 377.628 188.284 378.223C187.453 379.063 186.643 379.882 185.707 380.809L162.733 401.706C159.916 403.978 157.117 406.26 154.322 408.54L154.318 408.543C142.493 418.186 130.733 427.777 117.917 436.251C117.8 436.328 117.687 436.403 117.575 436.475C117.445 436.56 117.318 436.643 117.194 436.723L117.194 436.724C115.55 437.792 114.421 438.526 113.166 440.373C110.91 443.692 110.157 447.744 109.366 452.004C109.271 452.514 109.176 453.026 109.078 453.541C108.073 458.792 106.856 462.752 104.758 466.971C102.648 471.213 100.254 473.942 97.0059 476.966C91.4771 482.114 81.2412 486.32 71.4312 485.566C51.6701 484.047 37.9905 468.528 37.9905 448.481C37.9905 440.707 40.8273 435.137 44.6807 429.534C45.3396 428.576 45.578 428.336 46.0204 427.892C46.207 427.705 46.4298 427.481 46.7357 427.152C47.2439 426.605 47.4714 426.276 47.6955 425.951C47.8943 425.663 48.0905 425.379 48.4777 424.95C53.9705 418.87 64.2636 414.948 72.4841 414.948C81.5122 414.948 86.2234 417.348 90.0903 419.318C92.7817 420.69 95.0641 421.852 98.1082 421.852C104.647 421.852 120.958 409.541 127.375 404.698L127.375 404.697C127.659 404.483 127.924 404.283 128.167 404.1C142.662 393.185 159.979 378.998 172.887 366.006C182.713 356.117 191.964 345.566 200.669 334.633C221.982 307.862 240.631 276.674 251.791 243.278C257.598 225.902 259.736 215.093 259.736 195.505C259.736 174.761 251.664 153.555 241.306 138.006C239.68 135.566 238.333 133.759 236.722 131.597L236.722 131.597C236.47 131.258 236.211 130.911 235.944 130.551C234.998 129.279 234.507 128.735 233.721 127.865L233.72 127.864L233.72 127.864C233.621 127.754 233.517 127.639 233.406 127.516C233.283 127.379 233.152 127.233 233.011 127.075C232.54 126.545 232.219 126.129 231.911 125.729L231.911 125.729C231.477 125.165 231.069 124.636 230.3 123.871C225.798 119.388 222.251 115.873 217.082 111.949C184.636 87.3201 143.816 85.0285 109.636 107.922C91.8545 119.832 87.1972 126.891 84.2299 131.389C83.0397 133.193 82.1214 134.585 80.7372 135.712C74.7104 140.621 67.7712 136.123 63.8917 131.12L56.1037 122.148C44.1419 110.304 30.6556 101.435 13.9523 96.7712C9.28364 95.4677 4.62825 94.4557 0 93.7572ZM0 638.931V509.5C0.598585 509.651 1.20444 509.803 1.81903 509.954C17.3412 513.783 25.9487 522.237 35.2512 533.797L44.8301 546.898C46.4537 549.311 47.7242 551.383 49.2195 553.846C56.663 566.101 63.0948 580.014 65.8313 594.363C67.3391 602.27 67.3078 609.285 67.2809 615.323C67.2624 619.478 67.246 623.171 67.7348 626.373C68.2362 629.657 68.2788 633.858 68.0163 637.383C67.5756 643.303 63.0219 643.16 55.0498 642.91C53.2656 642.854 51.3101 642.792 49.1911 642.792C32.4653 642.792 16.0916 641.436 0 638.931ZM197.334 534.92L199.395 533.541C200.067 533.116 200.504 532.826 201.129 532.41L201.13 532.409L201.475 532.18L230.459 512.02C231.215 511.519 231.805 511.085 232.398 510.65C233.027 510.187 233.659 509.722 234.494 509.175C239.416 505.949 242.038 503.792 245.703 499.26C253.705 489.368 256.205 468.848 248.099 468.848C244.821 468.848 240.035 471.203 235.798 473.287C234.64 473.857 233.523 474.406 232.489 474.882C229.515 476.25 226.744 477.555 224.043 478.826L224.043 478.826C217.18 482.056 210.779 485.069 202.69 488.361C197.346 490.535 192.288 492.483 186.777 494.583C182.425 496.242 178.091 497.665 173.794 499.075C172.746 499.42 171.7 499.763 170.656 500.109C161.101 503.277 153.801 505.144 147.818 506.674C130.704 511.051 124.354 512.675 106.799 534.094C106.297 534.706 105.918 535.223 105.525 535.757C105.205 536.193 104.877 536.64 104.466 537.161C94.3355 550.012 83.8198 567.981 80.5583 583.897C79.9081 587.069 79.4047 589.641 79.0027 593.119C77.8048 603.486 77.5125 613.471 77.5731 624.001C77.5839 625.87 77.4467 627.34 77.3089 628.817C77.1564 630.452 77.003 632.095 77.0488 634.296C77.2057 641.843 83.4294 641.138 91.2335 640.253H91.2343C93.3296 640.015 95.5388 639.765 97.7751 639.657L141.599 636.19C156.147 634.558 179.251 629.107 193.069 625.144C201.206 622.81 209.106 620.392 216.618 617.695C220.545 616.285 224.147 614.913 228.033 613.368C239.432 608.838 249.852 604.287 260.755 598.877C261.754 598.382 262.547 597.921 263.33 597.467L263.33 597.466C264.113 597.012 264.884 596.564 265.839 596.094C285.916 586.214 316.484 565.221 333.483 550.21L337.684 546.55C338.061 546.204 338.512 545.79 339.021 545.323L339.023 545.32C343.661 541.067 353.122 532.388 355.471 529.464C356.273 528.466 357.243 527.539 358.218 526.608C358.602 526.241 358.987 525.873 359.364 525.499C362.214 522.669 364.276 520.336 366.206 518.153C367.68 516.485 369.077 514.904 370.691 513.255C371.7 512.222 372.341 511.478 373.054 510.648C373.453 510.183 373.876 509.692 374.4 509.107C374.973 508.468 375.233 508.136 375.566 507.712L375.567 507.711L375.568 507.71L375.57 507.707C375.657 507.597 375.748 507.48 375.852 507.349C375.947 507.23 376.052 507.099 376.172 506.952C376.542 506.496 376.846 506.194 377.16 505.882C377.438 505.607 377.723 505.323 378.069 504.92L395.268 482.845C396.901 480.489 398.499 478.308 399.97 476.302C408.393 464.809 412.607 459.06 394.973 459.06C384.316 459.06 375.216 462.485 368.751 466.791C364.944 469.327 362.543 471.442 359.364 474.599L344.089 488.797C343.69 489.15 343.389 489.458 343.098 489.757C342.72 490.144 342.358 490.515 341.817 490.945L332.314 498.639C325.053 504.392 319.98 507.887 312.27 512.994C293.955 525.126 285.38 528.59 261.449 530.558C257.428 530.889 253.494 531.342 249.57 531.794L249.565 531.794C243.241 532.523 236.943 533.248 230.356 533.453C227.293 533.548 223.725 533.939 220.305 534.314L220.304 534.314C218.293 534.534 216.334 534.749 214.558 534.895C211.108 535.178 206.779 535.086 202.708 534.999H202.706H202.705H202.703C200.821 534.959 198.994 534.92 197.334 534.92ZM74.4548 435.66C66.6133 435.66 58.6862 443.673 58.6862 451.44C58.6862 457.412 66.5431 464.755 72.4837 464.755H74.9476C81.1801 464.755 88.7451 457.629 88.7451 451.44C88.7451 442.472 80.4993 435.66 74.4548 435.66Z" fill="#594D3E" fill-opacity="0.07"/>
</svg>
