<svg width="208" height="113" viewBox="0 0 208 113" fill="none" xmlns="http://www.w3.org/2000/svg">
<path fill-rule="evenodd" clip-rule="evenodd" d="M0 64.336V112.724C0.443865 112.736 0.872341 112.749 1.28515 112.762C5.94832 112.909 8.6119 112.992 8.86969 109.53C9.02326 107.468 8.99833 105.01 8.70503 103.089C8.41909 101.216 8.42872 99.0564 8.43955 96.6257C8.45529 93.094 8.47359 88.9908 7.59161 84.3658C6.25836 77.3743 3.42544 70.5603 0 64.336ZM0 16.8601C3.02696 19.0332 6.71789 20.4074 10.8672 20.7263C16.6054 21.1675 22.5927 18.7073 25.8267 15.6961C27.7268 13.9269 29.1271 12.3305 30.3609 9.84943C31.5882 7.3815 32.3004 5.06536 32.8878 1.99402C32.9454 1.69313 33.0011 1.39345 33.0564 1.09549L33.0566 1.09463C33.1249 0.726786 33.1928 0.361579 33.2631 0H20.9604C20.983 0.251772 20.9947 0.506926 20.9947 0.765137C20.9947 4.38485 16.5697 8.55325 12.9241 8.55325H11.4828C8.00796 8.55325 3.41223 4.25794 3.41223 0.765137C3.41223 0.510258 3.42682 0.254929 3.45518 0H0V16.8601ZM84.512 49.5956L85.7174 48.7886C86.1109 48.5402 86.3667 48.3701 86.7331 48.1264L86.7333 48.1263L86.9342 47.9928L103.888 36.2001C104.33 35.9075 104.676 35.6536 105.022 35.3987C105.39 35.128 105.76 34.8563 106.248 34.5361C109.127 32.6492 110.661 31.3872 112.805 28.7368C117.485 22.9501 118.948 10.9477 114.206 10.9477C112.289 10.9477 109.489 12.3249 107.011 13.5442L107.011 13.5442C106.334 13.8774 105.68 14.1988 105.076 14.4771C103.336 15.2775 101.715 16.0405 100.135 16.7839C96.121 18.6734 92.3765 20.4358 87.6451 22.3611C84.5192 23.6332 81.5606 24.7723 78.3371 26.0008C75.7912 26.9711 73.2561 27.8035 70.7429 28.6286L70.7404 28.6294L70.7396 28.6297L70.7388 28.6299C70.127 28.8308 69.5164 29.0313 68.9073 29.2332C63.3183 31.086 59.0484 32.178 55.5483 33.0732C45.538 35.6334 41.8239 36.5834 31.5551 49.1119C31.2614 49.4702 31.0395 49.7724 30.8097 50.0852C30.6229 50.3397 30.4308 50.6013 30.1906 50.906C24.2647 58.4232 18.1137 68.9342 16.2059 78.2434C15.8256 80.099 15.5312 81.6036 15.296 83.6381C14.5953 89.7022 14.4244 95.5429 14.4598 101.702C14.4661 102.795 14.3859 103.655 14.3053 104.519C14.2161 105.475 14.1264 106.436 14.1531 107.724C14.2449 112.139 17.8853 111.726 22.4503 111.208C23.676 111.069 24.9684 110.923 26.2767 110.86L51.9108 108.832C60.4206 107.877 73.9348 104.689 82.0175 102.371C86.7768 101.006 91.398 99.5906 95.7921 98.0132C98.0893 97.1884 100.196 96.3859 102.469 95.4826C109.137 92.8325 115.232 90.1706 121.609 87.0062C122.194 86.7164 122.658 86.4469 123.115 86.1812L123.115 86.1811C123.573 85.9152 124.024 85.6532 124.583 85.3784C136.327 79.599 154.207 67.3196 164.151 58.5391L166.608 56.3983C166.738 56.2782 166.884 56.1445 167.043 55.9986L167.39 55.6802C170.102 53.1925 175.638 48.1144 177.012 46.404C177.481 45.8199 178.048 45.278 178.619 44.7333L178.619 44.7332C178.844 44.5184 179.069 44.3032 179.289 44.0847C180.956 42.4293 182.162 41.0649 183.291 39.7876C184.153 38.8121 184.971 37.8873 185.914 36.9226C186.505 36.3189 186.879 35.8834 187.296 35.3985L187.297 35.3981L187.297 35.3979C187.531 35.1259 187.778 34.8383 188.084 34.4967C188.42 34.1222 188.572 33.9283 188.767 33.6798L188.767 33.6795C188.865 33.5551 188.973 33.417 189.121 33.2357C189.337 32.9692 189.515 32.7926 189.699 32.6101L189.699 32.61C189.861 32.4489 190.028 32.2832 190.23 32.0471L200.291 19.135C201.245 17.7582 202.179 16.4836 203.038 15.3112L203.039 15.3098L203.041 15.3082L203.041 15.3078C207.968 8.58507 210.433 5.22232 200.118 5.22232C193.884 5.22232 188.562 7.2254 184.78 9.74454C182.553 11.2277 181.148 12.4646 179.289 14.3117L170.354 22.6166C170.121 22.8228 169.945 23.0031 169.775 23.1776C169.554 23.4042 169.342 23.6211 169.025 23.873L163.467 28.3734C159.219 31.7383 156.252 33.7828 151.742 36.7701C141.029 43.8664 136.013 45.8924 122.015 47.0439C119.663 47.2373 117.36 47.5025 115.064 47.767L115.064 47.767C111.365 48.193 107.681 48.6172 103.828 48.7372C102.036 48.7931 99.9485 49.0217 97.9477 49.241L97.9476 49.241L97.9475 49.241C96.7716 49.3698 95.6256 49.4954 94.587 49.5806C92.5688 49.7462 90.037 49.6924 87.6556 49.6417L87.6553 49.6417C86.5534 49.6183 85.4837 49.5956 84.512 49.5956Z" fill="white" fill-opacity="0.2"/>
</svg>
