<svg width="392" height="549" viewBox="0 0 392 549" fill="none" xmlns="http://www.w3.org/2000/svg">
<path fill-rule="evenodd" clip-rule="evenodd" d="M292.95 549H110.007L106.027 545.987C94.6072 537.033 86.8252 529.346 76.7952 519.43L48.6028 485.558C47.9317 484.67 47.4866 484.012 46.9771 483.259L46.9767 483.258C46.7356 482.902 46.48 482.524 46.1791 482.09C45.8043 481.55 45.3597 480.937 44.8735 480.266C42.0277 476.34 37.7588 470.452 37.7588 465.77C38.998 465.77 39.8706 465.582 40.7619 465.39C41.6923 465.19 42.643 464.985 44.0523 464.985C54.1134 464.985 60.7219 466.77 68.6013 471.885C73.4423 475.029 76.6959 478.24 80.3531 481.851C81.2904 482.776 82.2543 483.727 83.2782 484.711L90.5605 491.179C100.074 500.618 119.663 513.099 131.501 519.004L131.779 519.143L132.112 519.31C134.953 520.731 137.997 522.254 141.194 523.068C145.758 524.231 161.66 525.426 166.384 525.405L192.392 526.926C194.985 527.216 198.718 527.128 202.083 527.049H202.085H202.087H202.09H202.092H202.095H202.098H202.101H202.103C203.543 527.015 204.915 526.983 206.101 526.983L195.764 519.638C193.458 517.913 190.535 515.931 187.417 513.818C179.617 508.53 170.591 502.412 166.931 497.392C162.519 491.341 158.693 475.492 165.031 473.815C167.302 473.214 172.877 476.149 176.243 477.921C176.833 478.232 177.355 478.507 177.78 478.72C189.61 484.679 210.245 493.243 222.769 497.406C223.013 497.487 223.258 497.568 223.503 497.65L223.864 497.771L224.516 497.989L225.307 498.254L225.309 498.255L225.31 498.255L225.31 498.255L225.311 498.255L225.311 498.255L225.312 498.256L225.312 498.256L225.313 498.256C229.061 499.512 232.825 500.774 236.469 501.788C237.329 502.027 238.172 502.262 239.004 502.495L239.007 502.496L239.011 502.497L239.013 502.498C242.887 503.581 246.543 504.604 250.704 505.636C263.025 508.694 269.857 515.447 277.24 524.68L284.844 535.145C286.132 537.073 287.141 538.728 288.328 540.694C289.943 543.37 291.498 546.146 292.95 549ZM392 494.269V549H318.834C322.649 540.673 327.874 532.535 332.977 526.032C333.305 525.615 333.567 525.256 333.822 524.907C334.135 524.478 334.438 524.064 334.838 523.573C348.848 506.401 353.915 505.099 367.572 501.59L367.573 501.589C372.348 500.362 378.173 498.866 385.798 496.326C386.626 496.05 387.456 495.777 388.288 495.502L388.303 495.497C389.532 495.092 390.764 494.685 392 494.269ZM392 10.7289V28.9024C375.013 24.0865 357.533 21.0542 339.662 18.6108C330.901 17.413 323.123 16.9981 314.249 16.8887C313.139 16.875 312.556 16.7765 311.968 16.6773C311.433 16.587 310.895 16.496 309.951 16.4678C305.095 16.3229 289.856 16.7705 284.823 17.3229C283.011 17.5218 281.127 17.7085 279.223 17.8971C274.613 18.3538 269.884 18.8223 265.771 19.5048C259.338 20.572 253.813 21.5433 247.825 22.7914C231.208 26.2551 214.836 31.7715 199.246 38.2865C190.524 41.9313 182.349 46.0785 174.112 50.4898L163.792 56.2821C153.9 62.2169 144.296 68.6062 135.073 75.5028L126.257 82.4026C116.336 90.1322 107.321 98.7427 98.429 107.614L90.5609 115.852C82.2336 123.971 66.6671 145.993 60.9829 155.405C60.4709 156.253 59.9603 157.089 59.4531 157.92C57.2635 161.506 55.1372 164.988 53.2305 168.86C52.0732 171.211 50.8897 173.51 49.7107 175.799C47.242 180.594 44.7926 185.351 42.6423 190.473C41.502 193.19 40.6521 195.259 39.5573 197.99C29.2233 223.775 20.6916 255.252 18.516 283.337C18.4311 284.432 18.3556 285.565 18.28 286.699C18.1305 288.94 17.9805 291.189 17.7569 293.175C17.5818 294.731 17.619 296.358 17.6564 297.991C17.6988 299.847 17.7414 301.711 17.4722 303.485C17.0964 305.962 17.2987 308.114 17.4951 310.202C17.5991 311.308 17.7015 312.396 17.7153 313.506C17.8399 323.571 18.4684 333.489 19.8322 343.178C21.1797 352.751 22.5108 360.98 24.6224 370.183C25.1265 372.38 25.6684 374.483 26.2013 376.551C27.8963 383.129 29.4992 389.349 29.4992 397.101C29.4992 402.758 27.9491 403.772 21.2394 403.772C15.781 403.772 14.5 400.894 13.4507 396.631C12.6501 393.379 11.9128 390.429 11.231 387.702L11.23 387.698L11.2278 387.689L11.2234 387.672L11.2231 387.67C6.37285 368.268 4.33658 360.122 2.33015 334.348L1.07006 320.695C0.85056 319.007 0.533695 315.767 0.407077 313.9L0 300.573C0 271.983 5.56264 244.996 13.1456 218.336C15.8575 208.801 19.5878 199.389 23.2053 190.31C31.0276 170.676 41.6199 152.221 53.2536 134.745C53.6799 134.105 54.0037 133.672 54.3393 133.224C54.6077 132.866 54.8836 132.497 55.2257 132.004L69.5621 112.953C70.2657 112.092 70.8735 111.371 71.628 110.477L71.7064 110.384C72.0016 110.034 72.2731 109.701 72.5382 109.377L72.5383 109.376L72.5392 109.375C72.9694 108.849 73.3826 108.342 73.8527 107.816C86.6818 93.4579 92.2594 87.7863 107.078 74.6489C123.539 60.0559 144.104 45.7805 163.759 35.8443C178.893 28.1932 193.725 21.3185 210.182 15.8437C241.9 5.29271 274.357 0 308.364 0C337.936 0 365.558 3.57492 392 10.7289ZM392 157.738V174.682C373.516 170.721 354.115 174.221 336.838 185.756C322.646 195.233 318.928 200.851 316.56 204.429C315.61 205.865 314.877 206.972 313.772 207.87C308.961 211.776 303.423 208.196 300.326 204.216L294.11 197.076C284.562 187.652 273.797 180.595 260.465 176.883C241.106 171.495 222.034 172.368 204.794 181.944C194.121 187.873 184.816 195.907 177.609 205.442C165.128 221.954 159.688 240.908 159.688 262.903C159.688 276.917 166.143 297.049 170.966 306.588L178.04 320.327C185.04 333.108 193.944 345.14 203.834 355.807L210.525 362.865C211.161 363.499 211.846 364.215 212.551 364.953L212.552 364.953C214.181 366.656 215.924 368.479 217.448 369.693C219.024 370.946 219.725 371.641 221.142 373.071C225.922 377.896 233.193 383.698 238.695 388.087L238.695 388.088L238.696 388.088L239.591 388.803C248.786 396.145 243.632 405.342 237.173 405.342C232.117 405.342 224.806 398.527 219.805 393.866L219.805 393.865C218.761 392.893 217.819 392.014 217.018 391.311L188.699 363.058C179.052 352.774 170.252 340.625 163.248 328.413C159.536 321.941 156.197 315.117 153.136 308.287C149.833 300.919 147.566 293.487 145.823 285.368C144.054 277.127 142.776 267.497 142.776 257.41C142.776 236.613 149.223 217.616 160.549 200.978L163.17 197.315C163.624 196.737 164.072 196.148 164.521 195.558L164.521 195.558C165.878 193.776 167.247 191.977 168.827 190.402C168.993 190.237 169.142 190.094 169.28 189.96L169.28 189.96C169.663 189.591 169.97 189.295 170.367 188.799C177.753 179.569 187.754 172.603 197.966 166.892L201.887 164.917C202.355 164.717 202.66 164.563 202.966 164.407L202.967 164.407C203.265 164.256 203.566 164.104 204.021 163.907C232.18 151.773 261.014 155.294 286.609 170.421C288.437 171.502 289.956 172.572 291.523 173.676L291.523 173.676L291.524 173.677L291.524 173.677L291.525 173.677L291.525 173.678C292.288 174.215 293.063 174.761 293.891 175.32C294.726 175.884 295.347 176.379 296.003 176.902C296.448 177.256 296.909 177.623 297.464 178.034C298.642 178.906 299.661 179.673 300.774 180.618L301.005 180.814C305.036 184.236 306.787 185.723 308.432 185.612C309.695 185.528 310.896 184.499 313.019 182.681C313.891 181.934 314.92 181.053 316.172 180.05C335.184 164.818 354.999 156.565 380.342 156.565C383.743 156.565 387.773 156.984 392 157.738ZM392 386.31V407.936L379.22 419.525C376.97 421.333 374.735 423.15 372.503 424.965C363.065 432.639 353.678 440.27 343.448 447.013C343.329 447.092 343.213 447.167 343.1 447.241L342.871 447.389C341.559 448.239 340.658 448.823 339.656 450.293C337.856 452.934 337.255 456.158 336.623 459.547L336.623 459.548C336.547 459.953 336.471 460.361 336.393 460.771C335.591 464.949 334.619 468.1 332.945 471.457C331.261 474.832 329.35 477.004 326.757 479.411C322.344 483.507 314.174 486.854 306.344 486.254C290.571 485.045 279.652 472.697 279.652 456.745C279.652 450.559 281.916 446.127 284.992 441.668C285.518 440.906 285.708 440.715 286.061 440.362C286.21 440.213 286.388 440.035 286.632 439.773C287.038 439.338 287.219 439.075 287.398 438.817C287.557 438.588 287.714 438.362 288.023 438.021C292.407 433.183 300.623 430.062 307.184 430.062C314.39 430.062 318.151 431.972 321.237 433.539C323.386 434.63 325.207 435.556 327.637 435.556C332.856 435.556 345.874 425.761 350.997 421.906L350.997 421.906L350.997 421.906L350.998 421.905L351.337 421.65L351.63 421.43C363.199 412.744 377.022 401.456 387.325 391.118C388.902 389.536 390.46 387.932 392 386.31ZM308.757 446.543C302.498 446.543 296.171 452.919 296.171 459.099C296.171 463.851 302.442 469.694 307.184 469.694H309.151C314.125 469.694 320.164 464.024 320.164 459.099C320.164 451.963 313.582 446.543 308.757 446.543ZM139.775 513.631L139.775 513.629C136.844 509.152 133.683 504.322 129.892 500.991L108.067 481.563C107.188 480.665 106.348 479.971 105.429 479.211C105.132 478.964 104.826 478.712 104.508 478.443C97.0327 472.124 87.3659 470.872 77.4844 470.872C77.8278 471.383 78.0432 471.604 78.3102 471.878C78.4817 472.054 78.6744 472.252 78.936 472.563C82.4998 476.795 86.2982 480.31 90.2559 483.973C91.007 484.668 91.7638 485.368 92.5259 486.08C101.801 494.742 131.877 516.173 141.596 516.389C140.997 515.497 140.392 514.572 139.776 513.632L139.775 513.631ZM107.377 474.795L120.455 486.86C120.594 487.001 120.722 487.134 120.844 487.261C121.23 487.664 121.565 488.012 122.045 488.413L133.729 498.73C133.539 490.207 125.106 474.01 111.31 474.01C109.773 474.01 108.387 474.311 107.377 474.795Z" fill="white" fill-opacity="0.2"/>
</svg>
