<svg width="241" height="194" viewBox="0 0 241 194" fill="none" xmlns="http://www.w3.org/2000/svg">
<path fill-rule="evenodd" clip-rule="evenodd" d="M216.171 0H201.052C201.601 0.970084 202.134 1.95041 202.638 2.94569C203.299 4.24688 203.996 5.53679 204.694 6.82876L204.694 6.82906C206.008 9.26159 207.327 11.7014 208.411 14.2376C208.99 15.5937 209.577 16.8596 210.16 18.1184L210.161 18.119C210.957 19.8375 211.747 21.5428 212.505 23.4466C212.844 24.298 213.176 25.122 213.504 25.9347C214.469 28.3263 215.394 30.6191 216.324 33.2205C221.262 47.0426 225.146 61.3978 226.877 76.4523L226.921 76.835V76.8351C227.589 82.6424 228.33 89.0819 228.296 94.9829C228.289 96.163 228.362 97.1613 228.436 98.1898L228.436 98.1902C228.512 99.2318 228.589 100.304 228.589 101.628C228.589 103.328 228.519 104.785 228.448 106.247C228.374 107.789 228.299 109.335 228.307 111.175L227.64 120.628C227.449 122.13 227.257 123.839 227.067 125.526L227.067 125.527L227.067 125.53L227.067 125.531L227.066 125.532L227.066 125.533C226.914 126.889 226.764 128.229 226.616 129.435C226.066 133.929 224.755 140.721 223.393 147.771C221.413 158.026 219.326 168.828 219.326 173.903C219.326 177.968 226.912 179.183 229.511 175.69C230.714 174.074 231.633 169.252 232.317 165.669C232.548 164.456 232.752 163.384 232.931 162.628C234.314 156.788 235.617 150.88 236.816 144.825C243.317 112.005 241.925 83.9888 234.835 51.4475C233.177 43.8357 230.875 36.3539 228.553 29.391C225.665 20.7333 222.423 12.345 218.362 4.29852C217.637 2.86055 216.907 1.42748 216.171 0ZM32.6778 0H93.1263C93.7139 0.357705 94.2706 0.695775 94.8002 1.01737C102.717 5.82488 104.571 6.95024 112.582 14.9415C114.836 17.1895 116.726 19.6142 118.586 22.2024C121.73 26.5794 124.149 30.9855 126.588 35.8279C129.993 42.5886 133.407 53.8943 133.407 63.9059C133.407 83.0882 130.009 94.9746 123.443 110.759C121.509 115.407 119.031 120.272 116.459 124.538C112.608 130.926 108.548 137.02 104.174 143.108C97.5044 152.391 88.4131 162.729 80.2997 170.848C79.9137 171.235 79.564 171.588 79.2205 171.936L79.2185 171.938L79.2167 171.939C78.7311 172.43 78.2576 172.909 77.7113 173.45L64.2727 185.674C62.6242 187.003 60.9864 188.339 59.3508 189.673C57.5753 191.121 55.8023 192.567 54.0208 194H34.2789C37.8633 191.747 41.5676 188.951 43.5908 187.424C43.7569 187.298 43.9117 187.181 44.0541 187.074C52.5325 180.689 62.6621 172.391 70.2122 164.792C75.9596 159.007 81.371 152.836 86.4626 146.44C98.9295 130.781 109.838 112.538 116.366 93.0037C119.763 82.8401 121.013 76.5176 121.013 65.0596C121.013 52.9258 116.292 40.5213 110.233 31.4266C109.282 29.9991 108.494 28.942 107.552 27.6773L107.546 27.6697C107.4 27.4741 107.251 27.2735 107.096 27.0658C106.543 26.3215 106.256 26.0033 105.796 25.4941C105.673 25.3579 105.537 25.2079 105.381 25.0325C105.105 24.7226 104.917 24.4789 104.737 24.2453L104.737 24.2452C104.483 23.9154 104.245 23.6056 103.795 23.1581C101.162 20.536 99.0869 18.48 96.0633 16.1848C77.0847 1.77845 53.2075 0.438036 33.2144 13.8293C22.8135 20.7959 20.0893 24.9251 18.3536 27.5559C17.6574 28.6111 17.1203 29.4253 16.3106 30.0848C12.7853 32.9562 8.72632 30.3247 6.45706 27.3988L1.90163 22.1503C1.27514 21.53 0.641498 20.9236 0 20.3317V4.9447C0.00203575 4.94614 0.0040716 4.94758 0.00610757 4.94902L0.0061112 4.94902C0.565974 5.34477 1.13418 5.7464 1.74109 6.1577C2.35299 6.57238 2.80808 6.93589 3.28939 7.32034C3.61524 7.58061 3.9531 7.85048 4.35977 8.15233C5.22327 8.79325 5.96972 9.35752 6.78526 10.0518L6.95484 10.1962L6.95485 10.1962C9.90819 12.7111 11.1918 13.8042 12.3967 13.7234C13.323 13.6613 14.2028 12.9055 15.7588 11.5687C16.3982 11.0194 17.1517 10.372 18.0696 9.63437C22.8247 5.81296 27.6482 2.58909 32.6778 0ZM6.98202 194H16.7896C15.3447 193.65 13.6208 193.42 11.4831 193.42C10.0546 193.42 8.5191 193.622 6.98202 194Z" fill="white" fill-opacity="0.2"/>
</svg>
