<svg width="205" height="103" viewBox="0 0 205 103" fill="none" xmlns="http://www.w3.org/2000/svg">
<path fill-rule="evenodd" clip-rule="evenodd" d="M0 12.4549V0.352682C4.28071 0.117605 8.59271 0 12.9391 0C39.2194 0 63.4066 3.84057 86.4997 11.5271L94.4467 14.2867C111.891 20.9624 127.737 29.5024 143.143 39.9496C148.639 43.6759 154.243 47.8498 159.193 52.2521L166.811 58.8088C168.882 60.4052 173.205 64.7665 176.045 67.6308L176.045 67.631C176.627 68.2179 177.146 68.742 177.571 69.1665L184.37 76.5418C187.088 79.4591 189.532 82.5184 191.988 85.5916L191.988 85.5925L191.989 85.5933L191.99 85.5942L191.99 85.595C193.199 87.1083 194.411 88.6249 195.659 90.1296C196.018 90.5613 196.266 90.9244 196.528 91.3088C196.705 91.5678 196.889 91.8365 197.117 92.1426C197.391 92.509 197.651 92.8513 197.903 93.1834L197.903 93.1837L197.904 93.1843C198.634 94.1464 199.299 95.0232 200.047 96.1548L204.636 103H188.303C187.429 101.743 186.555 100.484 185.692 99.2175C181.691 93.3495 172.693 82.4586 167.441 77.2606C166.643 76.4704 165.944 75.7709 165.212 75.0381C164.858 74.6834 164.496 74.3209 164.111 73.9366C155.09 64.9262 145.392 56.5805 134.746 49.4933C122.995 41.671 112.655 36.1152 99.9691 30.4538C97.7926 29.4824 95.6753 28.6802 93.5285 27.867L93.5283 27.8669C92.439 27.4543 91.3422 27.0387 90.2263 26.5968C72.8705 19.723 54.7137 16.2768 35.9723 13.7116C29.5247 12.8291 23.8004 12.5234 17.2698 12.4428C16.453 12.4327 16.024 12.3602 15.5916 12.2871C15.1978 12.2205 14.8013 12.1535 14.1066 12.1327C11.5053 12.055 4.85489 12.2086 0 12.4549Z" fill="white" fill-opacity="0.2"/>
</svg>
