<svg width="45" height="46" viewBox="0 0 45 46" fill="none" xmlns="http://www.w3.org/2000/svg">
<path fill-rule="evenodd" clip-rule="evenodd" d="M32.6566 4.27096C32.6935 4.31603 32.7275 4.36274 32.7586 4.41108L32.7599 4.41354L32.7635 4.41969L32.7746 4.43812L32.8139 4.50327C32.85 4.56063 32.8987 4.64176 32.9602 4.74664C33.7148 6.04525 34.3944 7.38601 34.9957 8.76233C36.0921 11.2821 37.25 14.6832 37.25 17.9233C37.25 21.5899 34.7732 23.623 32.5951 24.6727C31.5092 25.1887 30.3629 25.5666 29.183 25.7974C27.3668 27.4841 24.9787 28.4196 22.5 28.4155C21.022 28.4167 19.5628 28.0843 18.2311 27.443C16.8995 26.8018 15.7298 25.8682 14.8091 24.712L14.7526 24.7071C14.4853 24.6827 14.2192 24.6475 13.9548 24.6014C13.1189 24.4585 12.305 24.2082 11.5334 23.8565C10.6361 23.4386 9.68225 22.797 8.95212 21.8124C8.21094 20.8131 7.75 19.5274 7.75 17.9233C7.75 14.891 9.22746 11.4456 10.5845 8.88648C11.4002 7.35173 12.3056 5.86637 13.296 4.43812L13.3353 4.38281L13.3501 4.35946L13.4582 4.19967C13.5504 4.06815 13.682 3.89237 13.859 3.68587C14.3387 3.13274 14.8835 2.63955 15.4815 2.21702C16.9712 1.15502 19.2698 0.145874 22.5664 0.145874C25.8544 0.145874 28.3582 1.1501 30.0446 2.1654C30.8866 2.67304 31.5245 3.18192 31.9584 3.57156C32.1946 3.78581 32.4202 4.01143 32.6345 4.2476L32.6468 4.26235L32.6529 4.2685L32.6566 4.27096ZM15.4163 5.69187L15.3573 5.78283L15.3549 5.78529L15.345 5.79758L15.3045 5.85658C15.2668 5.90821 15.2127 5.98605 15.1422 6.09012C14.2744 7.3612 13.4775 8.67923 12.7552 10.0382C11.4228 12.5531 10.2083 15.5375 10.2083 17.9221C10.2083 19.0271 10.5156 19.7929 10.9262 20.3472C11.349 20.9151 11.9329 21.3306 12.572 21.628C12.8756 21.7694 13.1829 21.8812 13.4755 21.9685C13.2413 20.9137 13.0653 19.8468 12.9481 18.7727C12.8092 17.4525 12.7687 15.9886 13.017 14.6943C13.2616 13.4258 13.8381 12.0626 15.1582 11.3534C16.9147 10.4106 19.8868 9.14952 22.5074 8.2805C23.814 7.8466 25.0886 7.49137 26.1076 7.32912C26.6079 7.25046 27.1217 7.20621 27.574 7.25169C27.928 7.28856 28.6618 7.42254 29.0674 8.08752C32.3616 12.8432 32.4108 17.2006 31.5762 20.3829C31.3353 21.3035 31.023 22.1185 30.701 22.8117C30.9739 22.7085 31.2492 22.5905 31.527 22.4577C33.3093 21.5973 34.7917 20.228 34.7917 17.9221C34.7917 15.1909 33.796 12.1622 32.7414 9.74321C32.1798 8.45802 31.5454 7.20593 30.8411 5.99302L30.7256 5.79758L30.6961 5.76685L30.6826 5.7521C30.5646 5.63034 30.4424 5.51268 30.3163 5.39933C29.8397 4.97595 29.3245 4.59818 28.7774 4.27096C27.4044 3.44373 25.3332 2.60421 22.5676 2.60421C19.8094 2.60421 18.0049 3.43881 16.9061 4.22056C16.471 4.52715 16.0744 4.88495 15.7248 5.28625C15.6174 5.41299 15.5165 5.54509 15.4225 5.68204L15.4163 5.69187ZM16.0383 22.1406L15.9461 21.7509C15.6993 20.685 15.5146 19.6056 15.393 18.5182C15.2651 17.2977 15.2491 16.1091 15.4323 15.1589C15.6191 14.1854 15.9608 13.7146 16.321 13.5204C17.9275 12.6576 20.7656 11.4493 23.2817 10.6147C24.5429 10.1968 25.6688 9.88948 26.4923 9.75919C26.8033 9.71002 27.0319 9.69158 27.1868 9.69281C29.8885 13.7097 29.8602 17.2362 29.1977 19.7609C28.9097 20.8465 28.4742 21.8874 27.9034 22.8547C27.6937 23.2107 27.4617 23.5531 27.2089 23.8799L27.2003 23.8909L27.1745 23.9229L27.1696 23.9278L27.1684 23.929C27.027 24.0942 26.932 24.294 26.893 24.508C26.048 25.1351 25.0784 25.5741 24.0496 25.7953C23.0207 26.0166 21.9565 26.0151 20.9283 25.7908C19.9001 25.5665 18.9318 25.1247 18.0886 24.4951C17.2453 23.8655 16.5454 23.0627 16.0383 22.1406Z" fill="#F2EFE9"/>
<path fill-rule="evenodd" clip-rule="evenodd" d="M15.0193 29.4677C14.7587 28.949 14.4379 28.3086 13.8958 28.4327C7.25342 29.9446 0.375 34.3106 0.375 38.9507V45.6251H44.625V38.9507C44.625 35.2952 40.3573 31.8117 35.2993 29.7566L35.2821 29.7234L35.276 29.7111L35.2354 29.7307C33.8919 29.1899 32.4931 28.7474 31.1042 28.4327C30.4859 28.2914 29.8467 29.142 29.5677 29.6742H15.125L15.0193 29.4677ZM31.5995 31.0914C32.1371 31.2398 32.6701 31.4065 33.1987 31.5917C33.2134 32.0121 33.1815 32.5074 33.1126 33.0138C33.043 33.5383 32.9312 34.0562 32.7783 34.5626H31.1042C30.876 34.5627 30.6523 34.6264 30.4582 34.7464C30.2641 34.8665 30.1073 35.0382 30.0053 35.2423L28.7761 37.7007C28.6906 37.8712 28.646 38.0593 28.6458 38.2501V40.7084C28.6458 41.0344 28.7753 41.3471 29.0058 41.5776C29.2364 41.8081 29.549 41.9376 29.875 41.9376H32.3333V39.4793H31.1042V38.5402L31.8638 37.0209H35.2612L36.0208 38.5402V39.4793H34.7917V41.9376H37.25C37.576 41.9376 37.8886 41.8081 38.1192 41.5776C38.3497 41.3471 38.4792 41.0344 38.4792 40.7084V38.2501C38.479 38.0593 38.4344 37.8712 38.3489 37.7007L37.1197 35.2423C37.0177 35.0382 36.8609 34.8665 36.6668 34.7464C36.4727 34.6264 36.249 34.5627 36.0208 34.5626H35.3251C35.4754 33.9122 35.5773 33.2516 35.63 32.5861C36.8284 33.1515 37.942 33.8005 38.9069 34.5036C41.2694 36.2293 42.1667 37.842 42.1667 38.9507V43.1668H2.83333V38.9507C2.83333 37.8408 3.73063 36.2281 6.09308 34.5048C7.28046 33.6383 8.69769 32.8541 10.2169 32.2051C10.2594 33.1845 10.4166 34.1557 10.6852 35.0985L10.6951 35.1329C9.96024 35.5978 9.41332 36.3074 9.15093 37.1364C8.88853 37.9654 8.92753 38.8605 9.26104 39.6635C9.59456 40.4666 10.2011 41.1259 10.9736 41.5251C11.7461 41.9243 12.6348 42.0377 13.4828 41.8452C14.3308 41.6527 15.0834 41.1668 15.6079 40.4732C16.1323 39.7796 16.3948 38.923 16.3489 38.0546C16.303 37.1863 15.9518 36.3621 15.3572 35.7277C14.7626 35.0932 13.9629 34.6892 13.0993 34.5872L13.0452 34.4102C12.9153 33.9523 12.8188 33.4857 12.7564 33.0138C12.6875 32.5373 12.6587 32.0558 12.6704 31.5745C12.6745 31.4712 12.6806 31.3795 12.6888 31.2992C12.8363 31.2533 12.9838 31.2094 13.1313 31.1676L13.6414 32.1338H31.0513L31.5995 31.0914ZM12.6667 39.4977C13.328 39.4977 13.8958 38.9569 13.8958 38.2501C13.8958 37.5446 13.328 37.0025 12.6667 37.0025C12.0054 37.0025 11.4375 37.5433 11.4375 38.2501C11.4375 38.9556 12.0054 39.4977 12.6667 39.4977Z" fill="#F2EFE9"/>
</svg>
