<svg width="234" height="83" viewBox="0 0 234 83" fill="none" xmlns="http://www.w3.org/2000/svg">
<g clip-path="url(#clip0_142_681)">
<path fill-rule="evenodd" clip-rule="evenodd" d="M0.000244141 40.7702L0.0553609 42.578C0.0725045 42.8311 0.115407 43.2706 0.145126 43.4995L0.315738 45.3515C0.62571 49.3406 0.940944 50.2166 1.82142 53.7997C1.96349 54.3779 2.13693 54.7683 2.87599 54.7683C3.78445 54.7683 3.99432 54.6308 3.99432 53.8635C3.99432 52.4813 3.61941 51.4583 3.33402 50.2122C3.04812 48.9639 2.86789 47.8477 2.68546 46.5492C2.50079 45.235 2.4157 43.8896 2.39883 42.5245C2.39345 42.0899 2.28806 41.6793 2.36591 41.1652C2.43442 40.7129 2.3538 40.2178 2.40447 39.7667C2.45006 39.3609 2.47305 38.8743 2.50724 38.4323C2.8018 34.6227 3.95697 30.3532 5.35615 26.8557C5.50439 26.4852 5.61947 26.2046 5.77386 25.8361C6.20404 24.8093 6.72267 23.891 7.20746 22.9045C7.52542 22.2575 7.88848 21.6909 8.25711 21.0794C9.02672 19.8028 11.1344 16.8156 12.2619 15.7144L13.3272 14.5969C14.5311 13.3936 15.7518 12.2256 17.0949 11.1772L18.2887 10.2413C19.5374 9.30582 20.8378 8.43916 22.1771 7.63414L23.5744 6.84846C24.6896 6.25011 25.7964 5.68758 26.9774 5.19319C29.0882 4.30948 31.305 3.56123 33.5549 3.0914C34.3655 2.92211 35.1137 2.79037 35.9846 2.64561C36.7717 2.51478 37.7252 2.44192 38.5642 2.34965C39.2456 2.27471 41.309 2.21401 41.9664 2.23366C42.2346 2.24169 42.2613 2.2872 42.5484 2.29075C43.7499 2.30559 44.803 2.36187 45.9892 2.52434C49.4372 2.99661 52.7776 3.63109 55.9706 4.8966C56.5806 5.13833 57.1595 5.33711 57.7631 5.6067C60.0969 6.64902 61.9994 7.67188 64.1611 9.11201C66.1198 10.4168 67.904 11.9533 69.5637 13.6122C69.7808 13.8292 69.9583 14.0083 70.1763 14.2242C71.1425 15.1812 72.798 17.1863 73.534 18.2666C74.2044 19.2508 74.9085 20.2094 75.518 21.2336C75.9005 21.8765 76.31 22.5133 76.6518 23.1875C77.0019 23.8781 77.4084 24.5514 77.7137 25.2664C77.9659 25.857 78.2255 26.3546 78.467 26.9618C78.7128 27.5799 78.9405 28.1196 79.1696 28.7613C80.078 31.306 80.7926 33.9489 81.1111 36.7206C81.2361 37.8079 81.3786 39.0218 81.3722 40.1322C81.3696 40.5695 81.4261 40.8712 81.4261 41.3557C81.4261 41.9987 81.3714 42.4535 81.3741 43.1133L81.2515 44.8537C81.1879 45.3527 81.124 45.9766 81.0631 46.475C80.8149 48.5063 79.722 53.0852 79.722 54.6619C79.722 55.4103 81.1176 55.634 81.5957 54.991C81.892 54.5925 82.0948 53.1363 82.225 52.5861C82.4793 51.511 82.719 50.4232 82.9396 49.3085C84.1357 43.2661 83.8795 38.1081 82.5753 32.117C82.2702 30.7156 81.8466 29.3382 81.4194 28.0562C80.8881 26.4623 80.2917 24.9179 79.5446 23.4365C78.9706 22.2984 78.3843 21.177 77.735 20.0823C77.5627 19.7919 77.3844 19.5367 77.2216 19.2648L76.175 17.7027C75.99 17.4224 75.8322 17.227 75.636 16.9641C75.5316 16.8241 75.4781 16.7265 75.3678 16.5935C74.6715 15.7536 74.0373 14.8936 73.2909 14.0918L72.04 12.734C71.5803 12.2744 70.5194 11.1812 70.0605 10.8271L68.6588 9.61994C67.7482 8.80943 66.7171 8.041 65.7061 7.35496C62.8717 5.43155 59.9565 3.85927 56.7471 2.63022L55.285 2.12215C51.0364 0.707016 46.5866 -6.10352e-05 41.7516 -6.10352e-05C37.1471 -6.10352e-05 32.7527 0.717852 28.4582 2.14901C26.2299 2.89161 24.2217 3.82412 22.1726 4.86193C19.5114 6.20969 16.7269 8.14603 14.4982 10.1254C12.4918 11.9074 11.7366 12.6767 9.99962 14.6243C9.89672 14.7397 9.81391 14.848 9.70902 14.9726C9.60189 15.0998 9.51723 15.2002 9.41869 15.3211L7.47759 17.9052C7.37337 18.0557 7.31446 18.1207 7.21058 18.277C5.63542 20.6475 4.20126 23.1508 3.14216 25.8139C2.65235 27.0455 2.1473 28.3221 1.78011 29.6154C0.753405 33.2317 0.000244141 36.8922 0.000244141 40.7702Z" fill="#594D3E"/>
<path fill-rule="evenodd" clip-rule="evenodd" d="M5.11264 63.1779C5.11264 63.9215 5.905 64.8894 6.25272 65.3916C6.37956 65.5748 6.44698 65.6845 6.58089 65.862L10.398 70.4565C11.7561 71.8015 12.8097 72.8442 14.3559 74.0587L15.779 75.1379C15.963 75.2764 16.077 75.3635 16.2746 75.4942C16.6237 75.7251 16.9189 75.9404 17.2546 76.1647L19.3316 77.4421C20.2978 77.9644 21.08 78.4168 22.0823 78.8976L23.8125 79.67C28.6844 81.6798 33.6929 82.9775 39.0357 82.9775C40.2809 82.9775 41.0009 83.1763 41.0588 82.3915C41.087 82.0096 41.0825 81.5544 41.0286 81.1986C40.8997 80.3476 41.0976 79.1768 40.824 77.7306C40.5299 76.1759 39.8387 74.6685 39.0387 73.3407C38.878 73.074 38.7415 72.8495 38.567 72.5881L37.5376 71.1686C36.5378 69.9161 35.6128 69.0002 33.9446 68.5854C33.2598 68.4151 32.6758 68.2469 32.0173 68.0634C31.412 67.8947 30.7824 67.6754 30.1623 67.469C28.4667 66.9044 25.6727 65.7427 24.071 64.9345C23.6856 64.74 22.7062 64.1733 22.3448 64.2691C21.4867 64.4966 22.0047 66.6464 22.602 67.4671C23.2958 68.4202 25.4128 69.6652 26.5059 70.4846L27.9055 71.4809C27.3694 71.4809 26.5516 71.5295 26.0494 71.4732L22.528 71.2669C21.8884 71.2697 19.7353 71.1076 19.1173 70.9499C18.6533 70.8315 18.2129 70.6026 17.805 70.3987C16.2022 69.5977 13.5499 67.9047 12.2618 66.6244L11.2758 65.747C10.5963 65.0933 10.1121 64.543 9.28861 64.0074C8.22176 63.3135 7.327 63.0714 5.96476 63.0714C5.59114 63.0714 5.45561 63.1779 5.1127 63.1779H5.11264Z" fill="#594D3E"/>
<path fill-rule="evenodd" clip-rule="evenodd" d="M55.1184 71.1084L55.3411 70.9583C55.4263 70.9042 55.4766 70.87 55.5658 70.8104L58.6976 68.6179C58.8661 68.5057 58.9584 68.4241 59.1336 68.3085C59.6654 67.9577 59.9487 67.7231 60.3447 67.2303C61.2093 66.1545 61.4795 63.923 60.6036 63.923C60.1526 63.923 59.4375 64.3381 58.917 64.5792C57.7789 65.1062 56.915 65.5462 55.6972 66.045C55.1197 66.2815 54.5732 66.4932 53.9778 66.7216C53.3927 66.9461 52.8108 67.1308 52.2359 67.3226C48.2508 68.6522 47.8962 67.8747 45.3361 71.0184C45.2377 71.1392 45.183 71.2257 45.0841 71.352C43.9894 72.7496 42.8532 74.7038 42.5008 76.4345C42.4306 76.7795 42.3762 77.0593 42.3327 77.4375C42.2033 78.5649 42.1717 79.6508 42.1783 80.796C42.1807 81.2241 42.1122 81.4599 42.1216 81.9156C42.1431 82.9567 43.2194 82.5536 44.3611 82.4986L49.0963 82.1215C50.6682 81.944 53.1646 81.3512 54.6576 80.9202C55.5368 80.6665 56.3904 80.4034 57.2021 80.1101C57.6264 79.9568 58.0156 79.8076 58.4355 79.6396C59.6671 79.1469 60.793 78.652 61.9711 78.0637C62.187 77.9559 62.3141 77.8632 62.5204 77.7611C64.6897 76.6866 67.9927 74.4036 69.8294 72.7711L70.2832 72.3731C70.6948 71.9921 71.9234 70.8679 72.2051 70.515C72.326 70.3636 72.4821 70.2274 72.6257 70.0838C73.1689 69.5409 73.4471 69.1664 73.8496 68.7522C74.0199 68.577 74.0929 68.478 74.2504 68.3012C74.3435 68.1967 74.3602 68.1678 74.4419 68.0667C74.5173 67.9734 74.5671 67.9394 74.6468 67.8458L76.5052 65.4452C77.6926 63.721 78.7113 62.8585 76.4734 62.8585C75.3219 62.8585 74.3387 63.2309 73.6401 63.6993C73.2287 63.975 72.9692 64.205 72.6257 64.5484L70.9754 66.0924C70.8762 66.1806 70.8334 66.2431 70.7298 66.326L69.7031 67.1627C68.9185 67.7883 68.3703 68.1685 67.5373 68.7239C65.5583 70.0432 64.6318 70.4199 62.046 70.6339C60.9115 70.7279 59.84 70.9126 58.6865 70.9488C58.1608 70.9653 57.4978 71.0628 56.9795 71.1056C56.4342 71.1506 55.6858 71.1084 55.1184 71.1084L55.1184 71.1084Z" fill="#594D3E"/>
<path fill-rule="evenodd" clip-rule="evenodd" d="M40.1007 62.273C40.1007 61.4347 40.9574 60.5698 41.8049 60.5698C42.4581 60.5698 43.3492 61.305 43.3492 62.273C43.3492 62.9409 42.5317 63.7101 41.8581 63.7101H41.5918C40.9498 63.7101 40.1007 62.9175 40.1007 62.273H40.1007ZM19.3315 34.9154C19.3315 36.2837 19.5046 37.5899 19.7442 38.7078C19.9802 39.8091 20.2872 40.8171 20.7343 41.8165C21.1487 42.7429 21.6008 43.6685 22.1034 44.5465C23.0517 46.2029 24.2432 47.8508 25.5494 49.2458L29.3837 53.078C30.0118 53.6309 31.2853 54.9812 32.1126 54.9812C32.9871 54.9812 33.685 53.7337 32.44 52.7378C31.6838 52.1329 30.6251 51.2947 29.942 50.6039C29.7502 50.41 29.6553 50.3158 29.4419 50.1457C29.1461 49.9098 28.7894 49.5041 28.5046 49.2196L27.5986 48.2622C26.2596 46.8153 25.054 45.1833 24.1062 43.4497L23.1484 41.586C22.4954 40.2922 21.6215 37.5614 21.6215 35.6606C21.6215 32.6771 22.358 30.1061 24.0479 27.8664C25.0237 26.5731 26.2835 25.4833 27.7286 24.6792C30.0628 23.3803 32.6451 23.2618 35.2662 23.9927C37.0714 24.4961 38.5289 25.4533 39.8216 26.7316L40.6633 27.7001C41.0825 28.24 41.8325 28.7256 42.4838 28.1957C43.0064 27.7706 42.9145 26.9973 45.6069 25.1963C49.3008 22.7253 53.7124 22.9726 57.2188 25.6309C57.7775 26.0544 58.1608 26.4338 58.6474 26.9176C58.7892 27.0587 58.8174 27.1256 58.9403 27.2635C59.077 27.4168 59.1277 27.4646 59.2573 27.6387C59.4707 27.9255 59.6336 28.1387 59.8368 28.4433C60.9562 30.1215 61.8285 32.4103 61.8285 34.6493C61.8285 36.7635 61.5975 37.9301 60.9699 39.8056C59.7638 43.4101 57.7484 46.7763 55.445 49.6657C54.5043 50.8457 53.5045 51.9845 52.4426 53.0519C51.0477 54.4541 49.1761 55.9853 47.6097 57.1634C46.9886 57.6305 45.0991 59.0795 44.3611 59.0795C43.5595 59.0795 43.2467 58.3343 41.5919 58.3343C40.7035 58.3343 39.5911 58.7576 38.9975 59.4139C38.9085 59.5123 38.9129 59.5401 38.8092 59.6515C38.6977 59.7713 38.6883 59.7616 38.5871 59.9086C38.1707 60.5134 37.8641 61.1145 37.8641 61.9536C37.8641 64.1174 39.3425 65.7923 41.4781 65.9563C42.5383 66.0377 43.6445 65.5837 44.242 65.0281C44.593 64.7016 44.8518 64.4071 45.0797 63.9492C45.3065 63.4939 45.4381 63.0665 45.5466 62.4998C45.6461 61.9799 45.7155 61.4796 45.9884 61.0785C46.1431 60.8512 46.28 60.78 46.5019 60.6336C48.2145 59.5027 49.7526 58.1875 51.3452 56.9051L53.8281 54.6496C54.0007 54.4789 54.1339 54.3418 54.3063 54.1695C55.8054 52.6713 57.4851 50.7637 58.7173 49.0508C59.5254 47.9274 60.2757 46.8029 60.9871 45.6243C61.4623 44.8371 61.9202 43.9394 62.2774 43.0817C63.4906 40.1692 64.1184 37.9759 64.1184 34.4364C64.1184 32.5891 63.4877 30.5029 62.8585 29.2554C62.4078 28.3619 61.961 27.5489 61.38 26.7413C61.0364 26.2637 60.6873 25.8163 60.2709 25.4015C58.6747 23.8114 58.4016 23.6945 56.6199 22.6102C55.323 21.821 52.9725 21.2366 51.4972 21.2366C48.0658 21.2366 45.383 22.3561 42.8088 24.4222C41.6794 25.3286 41.8965 25.4963 40.7239 24.4992C40.5732 24.3711 40.4353 24.267 40.2758 24.1487C40.0897 24.0108 39.9816 23.909 39.792 23.7807C39.4499 23.5491 39.1743 23.3342 38.806 23.1161C35.3406 21.0643 31.4366 20.5866 27.6239 22.2326C27.4989 22.2866 27.4602 22.316 27.3349 22.3696L26.8042 22.6375C25.4215 23.4122 24.0673 24.357 23.0673 25.609C22.9942 25.7005 22.9436 25.7418 22.8589 25.8264C22.574 26.1108 22.3399 26.4489 22.0929 26.7641L21.738 27.261C20.2045 29.5177 19.3316 32.0945 19.3316 34.9154L19.3315 34.9154Z" fill="#594D3E"/>
<path fill-rule="evenodd" clip-rule="evenodd" d="M173.45 35.7671C173.45 34.2539 174.045 32.7483 175.087 31.7087C175.366 31.4301 175.522 31.2676 175.856 31.04C176.479 30.6151 177.1 30.3264 177.865 30.1734C179.422 29.862 181.067 30.0963 182.354 30.9655C185.513 33.0973 185.564 37.5916 183.182 39.9587C182.659 40.4782 182.186 40.7923 181.474 41.1257C180.377 41.6398 179.022 41.7175 177.81 41.4683C176.944 41.2902 176.083 40.8469 175.432 40.2793C174.128 39.1418 173.45 37.5184 173.45 35.7671L173.45 35.7671ZM171.479 32.9462C171.479 35.1379 171.376 36.371 172 38.4937C172.537 40.3221 173.799 41.9682 175.527 42.739C176.912 43.3568 177.931 43.4315 179.521 43.4315C180.651 43.4315 181.648 43.1068 182.472 42.7624L183.644 42.1232L185.099 40.8106C186.077 39.7685 186.87 37.7273 186.87 36.1929C186.87 34.6139 186.804 34.0111 186.224 32.5804C186.066 32.1912 185.834 31.7912 185.602 31.445L185.052 30.7182C184.958 30.6024 184.948 30.572 184.834 30.4568C184.198 29.8149 183.667 29.3751 182.822 28.9542C180.527 27.81 177.639 27.9892 175.516 29.3164L174.501 30.1112C174.242 30.3477 173.325 31.5608 173.29 31.9881H173.183C173.183 31.5147 173.37 30.1499 173.462 29.7123C173.617 28.982 173.851 28.4178 174.159 27.8004C174.329 27.4597 174.967 26.5627 175.252 26.3381C175.763 25.935 176.127 25.5803 176.811 25.2884C177.443 25.0192 177.974 24.8176 178.752 24.6736C179.972 24.4479 182.185 24.3729 183.484 24.1866C184.017 24.1102 185.445 24.0473 185.858 23.9511V22.1415L183.675 22.3021C183.493 22.3111 183.166 22.3405 182.944 22.3693L180.798 22.5663C179.705 22.6202 178.313 22.7517 177.356 23.0657C176.474 23.3554 175.896 23.5788 175.196 24.0467C172.423 25.9016 171.479 29.5038 171.479 32.9461L171.479 32.9462Z" fill="#594D3E"/>
<path fill-rule="evenodd" clip-rule="evenodd" d="M94.4734 41.3024H91.3314V33.6913H94.7397C96.5558 33.6913 98.4987 34.1303 99.3372 35.643C99.9248 36.7033 99.9838 38.5079 99.3638 39.4838C99.0582 39.9649 98.6892 40.2926 98.2047 40.5607C97.2643 41.0811 95.9268 41.3024 94.4734 41.3024H94.4734ZM95.3255 31.8816H91.3314V25.2285C93.1422 25.2285 95.9272 25.0501 97.3671 25.8493C98.8668 26.6817 98.8991 28.8085 98.4353 30.1463C98.2672 30.6312 98.1065 30.7765 97.7894 31.0975C97.2892 31.6038 96.3237 31.8817 95.3255 31.8817V31.8816ZM89.361 43.1121H94.9527C96.7953 43.1121 98.7063 42.6445 99.8102 41.8993C101.557 40.7204 101.823 39.0654 101.823 37.0444C101.823 35.8581 101.373 34.8777 100.828 34.2066C99.8937 33.057 98.7489 32.8122 98.574 32.5736C98.8302 32.5139 99.2276 32.1608 99.4343 31.9964C100.17 31.4115 100.704 30.0206 100.704 28.901C100.704 27.1002 100.462 25.624 98.8836 24.5465C97.8433 23.8362 96.2607 23.4189 94.5267 23.4189H89.361V43.1121Z" fill="#594D3E"/>
<path fill-rule="evenodd" clip-rule="evenodd" d="M106.136 35.9799C106.136 33.3593 107.369 31.5516 109.472 30.5324C110.553 30.0088 111.858 29.9365 113.037 30.1475C113.445 30.2206 113.809 30.3267 114.156 30.4661C115.18 30.8775 115.265 31.092 115.905 31.592C116.888 32.3597 117.639 34.2575 117.639 35.6073C117.639 37.1969 117.302 38.4883 116.296 39.6406C115.966 40.0179 116.187 39.8388 115.768 40.1772C115.685 40.2441 115.653 40.2848 115.57 40.3523C115.194 40.6593 114.684 40.9632 114.231 41.1428C112.328 41.8979 110.337 41.7561 108.628 40.6211C107.208 39.6771 106.136 38.0006 106.136 35.9799H106.136ZM106.243 30.9768V28.5285H104.272V48.2216H106.243V40.6637C106.368 40.7556 106.772 41.3483 107.185 41.6912C107.789 42.1932 107.571 42.1007 108.342 42.5575C109.626 43.3185 110.799 43.4314 112.314 43.4314C113.872 43.4314 115.759 42.7078 116.93 41.712C117.869 40.9146 118.358 40.2866 118.917 39.1734C120.332 36.3537 119.773 32.7114 117.439 30.378C116.215 29.1538 114.24 28.2091 112.367 28.2091C110.563 28.2091 109.131 28.4201 107.748 29.4478C106.672 30.2475 106.469 30.8109 106.243 30.9768Z" fill="#594D3E"/>
<path fill-rule="evenodd" clip-rule="evenodd" d="M107.201 59.3456C107.201 56.725 108.434 54.9173 110.538 53.8981C111.618 53.3745 112.923 53.3023 114.102 53.5132C114.832 53.6439 115.567 53.9257 116.17 54.3203C117.706 55.3254 118.704 57.1052 118.704 58.9731C118.704 60.5626 118.367 61.854 117.361 63.0063C117.224 63.1636 117.18 63.2588 117.013 63.4039C116.497 63.8533 115.943 64.2517 115.296 64.5086C114.935 64.6517 114.674 64.74 114.243 64.8396C110.782 65.6378 107.201 63.0963 107.201 59.3457L107.201 59.3456ZM107.308 54.3425V51.8942H105.337V71.5874H107.308V64.0294C107.447 64.1315 107.608 64.4007 107.747 64.5488C107.845 64.6542 107.88 64.6751 107.976 64.7981C108.235 65.129 109 65.6821 109.407 65.9233C110.691 66.6843 111.864 66.7971 113.379 66.7971C114.73 66.7971 116.426 66.2086 117.48 65.4669L118.478 64.6553C118.807 64.3237 119.026 64.0598 119.313 63.6797C119.604 63.2944 119.765 62.9714 119.982 62.5391C120.998 60.516 120.972 57.8991 120.018 55.8502C119.258 54.2177 117.967 53.0577 116.362 52.2659C114.394 51.2956 111.341 51.3208 109.435 52.4236C107.776 53.3831 107.64 54.0989 107.308 54.3425Z" fill="#594D3E"/>
<path fill-rule="evenodd" clip-rule="evenodd" d="M161.574 30.0188C162.632 30.0188 163.746 30.3453 164.567 30.8599C165.026 31.1482 164.955 31.1354 165.302 31.4025C166.075 31.9977 167.087 33.7547 167.166 34.7026H156.035C156.199 34.3619 156.145 33.9658 156.727 32.8389C157.435 31.4681 158.861 30.4608 160.424 30.147C160.727 30.0861 161.252 30.0188 161.574 30.0188V30.0188ZM154.012 35.3413C154.012 36.5505 154.02 37.288 154.468 38.4511C154.923 39.6314 155.346 40.3202 156.262 41.2359C157.494 42.4675 159.442 43.4315 161.361 43.4315C162.661 43.4315 163.294 43.3754 164.458 42.9076C165.867 42.3413 166.914 41.4473 167.79 40.2766C168.474 39.3633 168.487 38.9439 168.816 38.3219H166.686C166.464 39.2768 165.314 40.3333 164.466 40.8403C162.227 42.1792 159.381 41.7381 157.459 39.8263C156.75 39.1209 156.241 38.074 156.065 37.0683C156.027 36.854 156.025 36.6972 155.982 36.5122L169.073 36.5027C169.243 36.4389 169.242 36.1569 169.242 35.7671C169.242 34.4435 169.032 33.5326 168.497 32.4665C168.215 31.9018 167.822 31.3193 167.392 30.857C166.894 30.3219 166.623 30.0385 165.994 29.5931C164.988 28.8814 163.304 28.2092 161.947 28.2092C160.556 28.2092 159.516 28.2992 158.325 28.9009C157.74 29.1968 157.188 29.5071 156.69 29.9281C156.598 30.0056 156.562 30.0603 156.474 30.1381C156.36 30.2394 156.321 30.2433 156.207 30.3498L155.808 30.8033C154.861 31.773 154.012 33.8956 154.012 35.3413L154.012 35.3413Z" fill="#594D3E"/>
<path fill-rule="evenodd" clip-rule="evenodd" d="M201.302 64.9875C199.058 64.9875 197.102 63.6634 196.118 61.7057C195.02 59.5238 195.541 56.7193 197.24 55.0207C197.718 54.5434 198.238 54.2104 198.887 53.8983C200.03 53.3478 201.236 53.2929 202.479 53.5386C204.301 53.8988 205.672 55.0954 206.45 56.7547C207.327 58.6242 206.994 61.2189 205.676 62.8658C205.142 63.5325 204.485 64.116 203.66 64.4708C203.308 64.6223 202.971 64.7355 202.581 64.8291C202.284 64.9004 201.657 64.9875 201.302 64.9875ZM193.526 58.8666C193.526 59.7558 193.509 60.3532 193.762 61.2397C194.01 62.11 194.166 62.4388 194.556 63.1598C194.923 63.8372 195.625 64.6157 196.242 65.0944C196.771 65.5049 197.286 65.8423 197.931 66.1208C199.647 66.8618 201.656 67.0054 203.497 66.5427C204.039 66.4063 204.457 66.1763 204.893 65.9158C205.465 65.574 206.04 65.0184 206.48 64.5214C206.625 64.3571 206.786 64.0835 206.947 63.9762V66.4778H208.917V51.8942H206.947V54.3957C206.619 54.1765 205.134 51.5748 201.674 51.5748C199.988 51.5748 199.448 51.6202 197.886 52.2591C197.49 52.4209 197.052 52.6759 196.729 52.9129C194.824 54.3136 193.526 56.4159 193.526 58.8666V58.8666Z" fill="#594D3E"/>
<path fill-rule="evenodd" clip-rule="evenodd" d="M212.911 41.6218C212.103 41.6218 211.291 41.401 210.598 41.1124C209.323 40.581 208.348 39.5742 207.727 38.34C206.63 36.1581 207.15 33.3536 208.85 31.6549C211.943 28.5636 217.535 30.1041 218.402 34.4841C218.784 36.417 218.316 38.522 216.946 39.9063C216.494 40.363 215.904 40.8322 215.27 41.1051C214.918 41.2566 214.581 41.3698 214.19 41.4634C213.893 41.5347 213.266 41.6218 212.911 41.6218V41.6218ZM205.136 35.5009C205.136 36.3901 205.118 36.9875 205.371 37.874C205.631 38.7859 205.967 39.5948 206.528 40.3369L207.851 41.7287C208.037 41.8724 208.163 41.9707 208.374 42.1116C209.481 42.8522 211.074 43.4314 212.538 43.4314C213.688 43.4314 213.964 43.4642 215.106 43.177C215.817 42.9982 216.799 42.4534 217.317 41.9275L218.09 41.1557C218.235 40.9914 218.396 40.7178 218.556 40.6105V43.1121H220.526V28.5285H218.556V31.03L217.584 29.9788C216.508 28.903 214.995 28.2091 213.284 28.2091C211.598 28.2091 211.058 28.2545 209.495 28.8934C208.652 29.2378 207.962 29.7751 207.333 30.4046C206.004 31.732 205.136 33.5513 205.136 35.5009L205.136 35.5009Z" fill="#594D3E"/>
<path fill-rule="evenodd" clip-rule="evenodd" d="M130.74 64.9875C127.689 64.9875 124.988 62.4188 124.988 59.3989V58.9199C124.988 55.9176 127.635 53.3845 130.633 53.3845C133.297 53.3845 135.709 55.2164 136.23 57.8498C136.613 59.7827 136.144 61.8878 134.775 63.272C134.323 63.7288 133.733 64.1979 133.098 64.4708C132.407 64.7682 131.53 64.9875 130.74 64.9875ZM122.964 58.8666C122.964 60.5314 123.041 61.0209 123.679 62.5701C124.291 64.0565 125.875 65.4757 127.369 66.1208C129.085 66.8618 131.094 67.0054 132.935 66.5427C133.477 66.4063 133.895 66.1763 134.331 65.9158C134.903 65.574 135.479 65.0184 135.918 64.5214C136.063 64.3571 136.224 64.0835 136.385 63.9762V66.4778H138.355V51.8942H136.385V54.3957C136.057 54.1765 134.572 51.5748 131.112 51.5748C129.426 51.5748 128.886 51.6202 127.324 52.2591C126.928 52.4209 126.49 52.6759 126.167 52.9129C125.188 53.6332 124.612 54.2393 123.973 55.2975C123.418 56.2181 122.964 57.6177 122.964 58.8666L122.964 58.8666Z" fill="#594D3E"/>
<path fill-rule="evenodd" clip-rule="evenodd" d="M129.675 41.6218C128.558 41.6218 127.369 41.223 126.468 40.6213C124.994 39.6357 123.923 37.8424 123.923 36.0332V35.5542C123.923 32.9984 125.857 30.7603 128.289 30.1772C131.766 29.3431 135.32 31.9134 135.32 35.7671C135.32 36.5695 135.089 37.6063 134.84 38.1622C133.907 40.2449 132.042 41.6218 129.675 41.6218L129.675 41.6218ZM121.899 35.5009C121.899 37.304 122.068 38.2022 122.929 39.7941C123.123 40.1525 123.846 41.0725 124.123 41.3154L124.615 41.7287C125.896 42.7218 127.577 43.4314 129.302 43.4314C131.207 43.4314 132.293 43.3165 133.829 42.1551L134.853 41.1557C134.998 40.9915 135.159 40.7178 135.319 40.6105V43.1121H137.29V28.5285H135.319V31.03C135.162 30.9248 134.415 29.8034 133.221 29.0824C131.624 28.118 129.456 28.0157 127.602 28.426C126.248 28.7254 125.057 29.444 124.096 30.4047C122.768 31.7318 121.899 33.5533 121.899 35.5009V35.5009Z" fill="#594D3E"/>
<path fill-rule="evenodd" clip-rule="evenodd" d="M164.876 66.4778H166.899C166.944 66.3097 167.058 66.2304 167.158 66.0978L173.495 57.688C173.685 57.4335 173.855 57.2264 174.051 56.9657C174.246 56.7059 174.401 56.4985 174.598 56.2358C174.78 55.9941 175.589 54.869 175.739 54.7683V66.4778H177.71V51.8942H175.686C175.642 52.0613 173.585 54.7349 173.51 54.8289L167.987 62.1361C167.79 62.3986 167.631 62.6115 167.44 62.8661C167.305 63.0451 166.996 63.5032 166.846 63.6036V51.8942H164.876V66.4778Z" fill="#594D3E"/>
<path fill-rule="evenodd" clip-rule="evenodd" d="M225.16 33.0526V32.7333C225.16 31.0549 226.653 30.3381 228.355 30.3381H232.029V35.4477C230.536 35.4477 227.435 35.6251 226.32 34.9802C225.613 34.5715 225.16 33.9546 225.16 33.0526ZM223.136 32.6268C223.136 34.0014 223.321 34.6751 224.216 35.7519C224.637 36.2576 225.988 37.0309 226.597 37.0445C226.582 37.2343 226.476 37.3439 226.384 37.4703L222.444 43.1121H224.733L226.002 41.2925C226.096 41.1532 226.156 41.0523 226.256 40.9082L227.29 39.4398C227.464 39.1776 227.631 38.9535 227.811 38.6833C227.948 38.4777 228.736 37.2574 228.887 37.2574H232.029V43.1121H234V28.5285H227.769C225.39 28.5285 223.136 30.3022 223.136 32.6268Z" fill="#594D3E"/>
<path fill-rule="evenodd" clip-rule="evenodd" d="M189.639 43.1121H191.609V36.6187H200.343V43.1121H202.313V28.5285H200.343V34.809H191.609V28.5285H189.639V43.1121Z" fill="#594D3E"/>
<path fill-rule="evenodd" clip-rule="evenodd" d="M89.4142 66.4778H91.3847V53.7038H100.012V66.4778H101.982V51.8942H89.4142V66.4778Z" fill="#594D3E"/>
<path fill-rule="evenodd" clip-rule="evenodd" d="M181.065 66.4778H183.035V59.665C183.253 59.8107 186.812 63.5222 186.968 63.718C187.286 64.1165 187.841 64.5717 188.188 64.9469L189.438 66.2525C189.729 66.5556 189.674 66.4808 190.225 66.478C190.899 66.4745 191.574 66.4778 192.248 66.4778C192.007 66.1169 190.31 64.5154 189.783 63.8855L185.898 59.8912C185.734 59.7278 185.606 59.6034 185.444 59.4399L185.006 58.9199L187.736 56.3262C188.054 56.0201 188.328 55.7329 188.64 55.4203L191.335 52.7911C191.618 52.5654 192.056 52.182 192.248 51.8942L189.848 51.8901C189.521 51.9078 189.443 52.1165 189.013 52.5462C188.842 52.7176 188.71 52.8583 188.535 53.0263C188.417 53.1399 188.387 53.1425 188.27 53.2405L187.016 54.4889C186.832 54.6733 183.306 58.1533 183.035 58.3344V51.8942H181.065V66.4778L181.065 66.4778Z" fill="#594D3E"/>
<path fill-rule="evenodd" clip-rule="evenodd" d="M141.657 66.4778H143.627V59.665C143.798 59.7793 144.467 60.4515 144.623 60.6388C144.811 60.8636 144.899 60.9634 145.105 61.1686C145.287 61.3501 145.429 61.4927 145.611 61.6743C145.959 62.0218 146.224 62.3401 146.569 62.6855C146.919 63.0348 147.253 63.3332 147.56 63.7181C147.807 64.0279 148.241 64.4099 148.54 64.7081C148.63 64.798 148.695 64.8552 148.78 64.947L150.03 66.2525C150.32 66.5557 150.266 66.4809 150.816 66.478C151.491 66.4745 152.166 66.4778 152.84 66.4778C152.598 66.117 150.902 64.5155 150.375 63.8855L148.993 62.4989C148.484 61.9215 147.634 61.1321 147.408 60.836C147.018 60.325 146.314 59.7924 145.818 59.1786C145.728 59.0675 145.677 59.0381 145.598 58.9199C145.946 58.6866 147.708 56.8374 148.063 56.5405C148.6 56.0916 150.53 54.176 151.043 53.664C151.312 53.3945 151.646 53.0147 151.927 52.7911C152.21 52.5655 152.647 52.1821 152.84 51.8942C152.201 51.8942 151.562 51.8952 150.923 51.8942C150.063 51.8929 150.386 51.7659 149.605 52.5462C149.433 52.7177 149.301 52.8584 149.127 53.0264L148.593 53.5043C148.156 53.9421 143.945 58.1217 143.627 58.3344V51.8942H141.657V66.4778L141.657 66.4778Z" fill="#594D3E"/>
<path fill-rule="evenodd" clip-rule="evenodd" d="M140.166 33.372C140.166 33.9478 140.367 34.6797 140.53 35.0836C140.731 35.581 141.024 36.0151 141.377 36.3661C141.776 36.7631 142.079 36.964 142.615 37.2041C143.618 37.6529 144.548 37.5767 145.651 37.5767C146.259 37.5767 148.99 37.4458 149.272 37.3106V43.1121H151.243V28.5285H149.272V35.5542C148.927 35.5542 148.393 35.6396 148.025 35.6917C146.769 35.8693 143.865 35.8427 143.002 35.2212C142.257 34.685 142.136 33.8027 142.136 32.8397V28.5285H140.166V33.372V33.372Z" fill="#594D3E"/>
<path fill-rule="evenodd" clip-rule="evenodd" d="M153.319 53.7038H157.154V66.4778H159.124V53.7038H162.905V51.8942H153.319V53.7038Z" fill="#594D3E"/>
<path fill-rule="evenodd" clip-rule="evenodd" d="M19.1718 70.0438C18.7046 69.3466 18.2084 68.502 17.5871 67.9552L14.6321 65.3199C14.4745 65.1588 14.3263 65.0458 14.1502 64.8967C13.1381 64.0396 11.8293 63.8698 10.4913 63.8698C10.5677 63.9837 10.5973 63.9914 10.6879 64.0991C11.262 64.7821 11.881 65.3275 12.5279 65.9326C13.7837 67.1075 17.8559 70.0145 19.1718 70.0438Z" fill="#594D3E"/>
<path fill-rule="evenodd" clip-rule="evenodd" d="M64.0119 69.9374C64.324 70.1462 64.1468 70.2437 65.4505 69.5655C66.5839 68.9759 69.0819 67.1557 70.0698 66.1453L70.7623 65.5068C70.8759 65.4068 70.9139 65.4004 71.0288 65.2942L72.4261 63.9762C72.2161 63.9715 72.1918 63.923 71.787 63.923C69.6243 63.923 69.0269 64.8769 68.0139 65.6873L67.2998 66.3042C66.5851 66.9995 65.2157 68.0481 64.6827 68.8514L64.0119 69.9374H64.0119Z" fill="#594D3E"/>
<path fill-rule="evenodd" clip-rule="evenodd" d="M14.5386 64.402L16.3095 66.0385C16.3877 66.1183 16.4392 66.1777 16.5248 66.2492L18.1067 67.6487C18.0809 66.4926 16.9392 64.2955 15.0712 64.2955C14.8632 64.2955 14.6755 64.3363 14.5386 64.402H14.5386Z" fill="#594D3E"/>
<path fill-rule="evenodd" clip-rule="evenodd" d="M64.864 67.702C64.9856 67.6695 65.4117 67.268 65.5692 67.1294C66.2406 66.5385 67.4327 65.3415 68.0672 64.8358C68.2251 64.7099 68.429 64.5595 68.4853 64.3488C67.341 64.3488 66.8731 64.4503 65.9956 65.3201C64.9428 66.3635 64.9461 67.531 64.864 67.702Z" fill="#594D3E"/>
</g>
<defs>
<clipPath id="clip0_142_681">
<rect width="234" height="83" fill="white"/>
</clipPath>
</defs>
</svg>
