<svg width="35" height="44" viewBox="0 0 35 44" fill="none" xmlns="http://www.w3.org/2000/svg">
<path d="M25.1071 4.21429H29.9286C30.7811 4.21429 31.5986 4.55294 32.2014 5.15574C32.8042 5.75853 33.1429 6.5761 33.1429 7.42858V39.5714C33.1429 40.4239 32.8042 41.2415 32.2014 41.8443C31.5986 42.4471 30.7811 42.7857 29.9286 42.7857H4.21429C3.3618 42.7857 2.54424 42.4471 1.94144 41.8443C1.33865 41.2415 1 40.4239 1 39.5714V7.42858C1 6.5761 1.33865 5.75853 1.94144 5.15574C2.54424 4.55294 3.3618 4.21429 4.21429 4.21429H9.03571" stroke="#BFBBB4" stroke-width="2" stroke-linecap="round" stroke-linejoin="round"/>
<path d="M21.893 1H12.2501C11.3976 1 10.5801 1.33865 9.97727 1.94144C9.37447 2.54424 9.03583 3.3618 9.03583 4.21429V5.82143C9.03583 6.67391 9.37447 7.49148 9.97727 8.09427C10.5801 8.69707 11.3976 9.03571 12.2501 9.03571H21.893C22.7455 9.03571 23.563 8.69707 24.1658 8.09427C24.7686 7.49148 25.1073 6.67391 25.1073 5.82143V4.21429C25.1073 3.3618 24.7686 2.54424 24.1658 1.94144C23.563 1.33865 22.7455 1 21.893 1ZM14.8312 16.1393C14.4646 16.1393 14.1131 16.2849 13.8539 16.5441C13.5947 16.8033 13.449 17.1549 13.449 17.5214V21.4011H9.5694C9.20283 21.4011 8.85128 21.5467 8.59208 21.8059C8.33287 22.0651 8.18726 22.4166 8.18726 22.7832V27.2671C8.18726 28.0289 8.80761 28.6493 9.5694 28.6493H13.449V32.5289C13.449 33.2907 14.0694 33.9111 14.8312 33.9111H19.3151C19.6817 33.9111 20.0332 33.7655 20.2924 33.5063C20.5516 33.247 20.6973 32.8955 20.6973 32.5289V28.6429H24.5769C24.9435 28.6429 25.295 28.4972 25.5542 28.238C25.8134 27.9788 25.959 27.6273 25.959 27.2607V22.7832C25.9582 22.4172 25.8122 22.0665 25.5531 21.808C25.294 21.5495 24.9429 21.4043 24.5769 21.4043H20.6973V17.5182C20.6964 17.1522 20.5504 16.8015 20.2913 16.543C20.0322 16.2845 19.6811 16.1393 19.3151 16.1393H14.8312Z" stroke="#BFBBB4" stroke-width="2" stroke-linecap="round" stroke-linejoin="round"/>
</svg>
