<svg width="45" height="45" viewBox="0 0 45 45" fill="none" xmlns="http://www.w3.org/2000/svg">
<path fill-rule="evenodd" clip-rule="evenodd" d="M21.9627 19.5141C22.8965 18.2522 24.2812 17.3438 25.9527 17.3438C27.6749 17.3438 28.9987 18.2419 29.9371 19.5028C30.8765 18.2419 32.2002 17.3438 33.9215 17.3438C34.9115 17.3438 35.7871 17.6137 36.5296 18.0937C37.0957 18.4662 37.5844 18.9447 37.9687 19.5028C38.1114 19.7064 38.1674 19.9584 38.1243 20.2034C38.0812 20.4483 37.9426 20.666 37.739 20.8087C37.5354 20.9515 37.2834 21.0074 37.0385 20.9644C36.7935 20.9213 36.5758 20.7827 36.4331 20.5791C35.7543 19.6106 34.8918 19.2188 33.9215 19.2188C32.6287 19.2188 31.5402 20.1066 30.7884 21.735L29.9371 23.5772L29.0868 21.735C28.334 20.1066 27.2465 19.2188 25.9527 19.2188C25.0152 19.2188 24.1424 19.7212 23.4702 20.6287C22.7952 21.5409 22.3752 22.8075 22.3752 24.1434C22.3752 24.8653 22.484 25.5591 22.6771 26.2238C22.7727 26.5487 22.8874 26.8675 23.0212 27.18C23.969 29.3991 26.0521 31.2412 27.7631 32.5725C27.9531 32.7272 28.075 32.9502 28.1027 33.1937C28.1303 33.4372 28.0615 33.6819 27.911 33.8753C27.7605 34.0687 27.5403 34.1955 27.2974 34.2285C27.0546 34.2615 26.8085 34.1981 26.6118 34.0519C26.309 33.8175 25.9837 33.5578 25.6481 33.2766C24.0731 31.9575 22.2487 30.1434 21.2971 27.9169C21.1338 27.5363 20.9935 27.1462 20.8771 26.7487C20.6283 25.9023 20.5014 25.0247 20.5002 24.1425C20.5002 22.4363 21.0318 20.7731 21.9627 19.5141Z" fill="#D9D7CC"/>
<path d="M20.8069 12.9375L22.3753 15.9375L24.1931 12.9375C25.5806 10.0238 27.5803 8.4375 29.9709 8.4375C31.7081 8.4375 33.315 9.33937 34.5478 10.9575C35.7881 12.5859 36.5625 14.8481 36.5625 17.2303C36.5625 17.5203 36.5516 17.8081 36.5297 18.0937C37.0958 18.4662 37.5845 18.9447 37.9688 19.5028C38.0728 19.6509 38.1281 19.8197 38.1375 19.9884C38.3578 19.0744 38.4375 18.3075 38.4375 17.2303C38.4375 11.6962 34.8647 6.5625 29.9709 6.5625C27.2897 6.5625 25.1541 7.99875 23.6081 10.2122C23.1868 10.8204 22.8162 11.4623 22.5 12.1312C22.1839 11.462 21.8133 10.8198 21.3919 10.2113C19.8459 7.99875 17.7113 6.5625 15.0281 6.5625C10.1353 6.5625 6.5625 11.6953 6.5625 17.2312C6.5625 18.7181 6.79312 20.1412 7.2 21.4941C7.4 22.1566 7.63844 22.8013 7.91531 23.4281C11.7656 32.1703 22.5 37.5 22.5 37.5C22.5 37.5 24.8025 36.2831 27.6572 34.1241C27.4956 34.2175 27.3097 34.2605 27.1235 34.2476C26.9373 34.2348 26.7591 34.1666 26.6119 34.0519C26.3091 33.8175 25.9837 33.5578 25.6481 33.2766C25.0425 33.7116 24.4744 34.0969 23.9662 34.4287C23.476 34.7487 22.979 35.0581 22.4756 35.3569C22.2575 35.2344 22.0066 35.0888 21.7228 34.92C20.3624 34.1075 19.0499 33.2173 17.7919 32.2537C14.7291 29.9072 11.37 26.6222 9.63094 22.6725C9.38428 22.1135 9.17201 21.5399 8.99531 20.955C8.62869 19.7473 8.44076 18.4924 8.4375 17.2303C8.4375 14.8472 9.21187 12.585 10.4531 10.9575C11.6841 9.33937 13.2909 8.4375 15.0281 8.4375C17.4188 8.4375 19.4194 10.0238 20.8069 12.9375ZM36.99 23.5322C37.1296 23.5341 37.2674 23.5636 37.3956 23.6188C37.5238 23.6741 37.6398 23.7541 37.7371 23.8542C37.8343 23.9543 37.9109 24.0726 37.9624 24.2024C38.0139 24.3321 38.0393 24.4707 38.0372 24.6103C37.9903 28.0884 36.3075 30.4556 34.6725 31.9228C33.9921 32.531 33.2456 33.0609 32.4469 33.5025C32.1346 33.675 31.8135 33.8311 31.485 33.9703C31.4575 33.9803 31.4359 33.9891 31.4203 33.9966L31.4006 34.0041L31.3931 34.0069L31.3903 34.0078C31.1293 34.0963 30.8442 34.08 30.595 33.9623C30.3459 33.8447 30.1521 33.6349 30.0546 33.3771C29.9571 33.1194 29.9635 32.8339 30.0724 32.5808C30.1813 32.3277 30.3843 32.1267 30.6384 32.0203L30.6431 32.0184L30.6769 32.0044L30.8306 31.9388C31.7118 31.5282 32.528 30.9906 33.2531 30.3431C34.5778 29.1525 35.8753 27.3103 35.9128 24.5803C35.9146 24.4407 35.944 24.3029 35.9991 24.1747C36.0543 24.0464 36.1341 23.9303 36.2342 23.833C36.3342 23.7356 36.4525 23.659 36.5821 23.6074C36.7118 23.5557 36.8504 23.5302 36.99 23.5322Z" fill="#D9D7CC"/>
</svg>
