<svg width="45" height="45" viewBox="0 0 45 45" fill="none" xmlns="http://www.w3.org/2000/svg">
<path d="M29.7739 11.5859C29.4542 11.5859 29.1476 11.7129 28.9216 11.9389C28.6955 12.165 28.5685 12.4716 28.5685 12.7912C28.5685 13.1109 28.6955 13.4175 28.9216 13.6436C29.1476 13.8696 29.4542 13.9966 29.7739 13.9966C30.5099 13.9966 31.1255 14.2136 31.5739 14.6121C32.0142 15.0027 32.4064 15.6712 32.5108 16.793C32.5407 17.1114 32.6958 17.4049 32.942 17.609C33.1883 17.813 33.5055 17.9109 33.8239 17.8811C34.1423 17.8512 34.4358 17.6961 34.6398 17.4499C34.8439 17.2036 34.9417 16.8864 34.9119 16.568C34.7592 14.9577 34.1549 13.68 33.1762 12.8105C32.2071 11.9475 30.9824 11.5859 29.7739 11.5859ZM19.8578 7.46356C17.5451 5.6041 14.9817 5.21035 12.6835 5.65874C10.4239 6.10071 8.42459 7.35106 7.09548 8.79106L7.09227 8.79428C5.60245 10.4191 4.14156 12.4505 4.02906 15.4559C3.95995 16.9521 4.16406 19.117 5.33406 20.7305L5.33727 20.7337C6.59245 22.4534 7.32209 23.4755 7.6837 24.4687C8.08548 25.5696 8.09352 26.6689 8.10638 28.2198L8.10959 28.5493C8.11924 30.1468 8.45673 32.3373 9.26673 34.3286C10.0703 36.2957 11.4316 38.2982 13.6349 39.1195L13.6912 39.1404L13.7491 39.1564C15.046 39.4971 16.2433 39.3718 17.1449 38.5296C17.9405 37.7823 18.2732 36.6702 18.4596 35.6657C18.6316 34.7416 18.7167 33.668 18.8003 32.6121L18.8324 32.2104C18.9321 30.9921 19.0462 29.7755 19.2857 28.628C19.9607 25.4587 20.9025 24.8882 21.3524 24.7516C22.4405 24.472 23.1235 24.615 23.5864 24.8786C24.0782 25.1598 24.5105 25.6854 24.8689 26.5066C25.6082 28.1957 25.8203 30.5823 26.0019 32.7407C26.1819 34.8878 26.6351 36.8277 27.4933 38.0668C27.9369 38.7096 28.5653 39.2689 29.4123 39.4505C30.2673 39.6354 31.0998 39.383 31.8391 38.9089C34.5712 37.1636 36.1526 33.5475 36.5833 28.7453C36.7891 26.4568 37.0253 25.4025 37.3805 24.5427C37.5621 24.1039 37.7871 23.6877 38.0989 23.1509L38.3978 22.6382C38.6507 22.2161 38.9389 21.7179 39.2625 21.1436C39.8732 20.0555 40.8599 18.09 40.9724 15.7918C41.0898 13.4068 40.2573 10.7695 37.4448 8.47928C34.7448 6.28553 32.2328 5.48999 29.9925 5.60892C27.773 5.72624 25.9987 6.73713 24.7307 7.82678L24.6969 7.8541L24.6648 7.88624C23.4337 9.10928 22.8551 9.33588 22.4742 9.31981C22.0435 9.30213 21.3541 8.96624 19.9607 7.55517L19.9124 7.50696L19.8578 7.46356ZM6.43816 15.5507C6.51852 13.3859 7.53102 11.8832 8.86816 10.4239C9.88549 9.32464 11.438 8.35874 13.1464 8.02446C14.8017 7.70303 16.6049 7.9666 18.2957 9.30214C18.6926 9.70071 19.0832 10.0703 19.4753 10.395C20.4074 11.1664 21.346 11.6855 22.373 11.7289C23.5494 11.7771 24.5651 11.1986 25.523 10.3789C25.7962 10.1432 26.0657 9.89303 26.3314 9.62839C27.3262 8.78303 28.6023 8.09678 30.121 8.01481C31.5144 7.94089 33.2646 8.36838 35.3571 9.91124C35.5435 10.0484 35.7326 10.1952 35.9244 10.3516C38.1262 12.1436 38.6453 14.032 38.5649 15.6712C38.4798 17.3973 37.7244 18.9595 37.1603 19.9623V19.9655C36.8501 20.5184 36.5833 20.97 36.3407 21.383L36.0128 21.9407C35.6866 22.5032 35.3973 23.0303 35.153 23.6218C34.6548 24.8239 34.3944 26.1723 34.1823 28.5284C33.7773 33.0461 32.3389 35.73 30.5405 36.8775L30.5373 36.8807C30.1516 37.1282 29.9667 37.1057 29.9201 37.0945C29.8639 37.0832 29.7016 37.0237 29.4749 36.6959C28.9912 35.9952 28.5749 34.5841 28.4046 32.5382L28.3933 32.4112C28.223 30.3862 27.9916 27.6284 27.0771 25.5407C26.6014 24.4511 25.8878 23.4145 24.7789 22.7845C23.6458 22.1384 22.2814 22.0195 20.7273 22.4245L20.7112 22.4277L20.6951 22.4325C18.9224 22.9468 17.6608 24.6793 16.928 28.1298L16.9264 28.133C16.6532 29.4445 16.5294 30.7961 16.4298 32.0143L16.3976 32.4145C16.3108 33.4961 16.2369 34.4346 16.0891 35.2253C15.9187 36.1462 15.6937 36.5834 15.4976 36.7682C15.4076 36.8518 15.1826 37.0286 14.4224 36.8405C13.1657 36.3455 12.1837 35.0952 11.5007 33.4189C10.884 31.8622 10.5519 30.2073 10.5203 28.5332V28.5284L10.5171 28.1186C10.5074 26.6641 10.4978 25.1518 9.94977 23.6427C9.45156 22.2766 8.49691 20.9716 7.33173 19.3789L7.28513 19.3146C6.59245 18.3568 6.37709 16.8605 6.43656 15.562L6.43816 15.5507Z" fill="#D9D7CC"/>
</svg>
