<svg width="166" height="30" viewBox="0 0 166 30" fill="none" xmlns="http://www.w3.org/2000/svg">
<path opacity="0.2" d="M47.0979 5.8541C47.6966 4.01148 50.3034 4.01148 50.9021 5.8541L51.9187 8.98278C52.1864 9.80682 52.9543 10.3647 53.8208 10.3647H57.1105C59.0479 10.3647 59.8535 12.844 58.2861 13.9828L55.6246 15.9164C54.9237 16.4257 54.6304 17.3284 54.8981 18.1525L55.9147 21.2812C56.5134 23.1238 54.4044 24.656 52.837 23.5172L50.1756 21.5836C49.4746 21.0743 48.5254 21.0743 47.8244 21.5836L45.163 23.5172C43.5956 24.656 41.4866 23.1238 42.0853 21.2812L43.1019 18.1525C43.3697 17.3284 43.0763 16.4257 42.3754 15.9164L39.714 13.9828C38.1465 12.844 38.9521 10.3647 40.8895 10.3647H44.1792C45.0457 10.3647 45.8136 9.80682 46.0813 8.98278L47.0979 5.8541Z" fill="#E6C71A"/>
<path opacity="0.2" d="M115.098 5.8541C115.697 4.01148 118.303 4.01148 118.902 5.8541L119.919 8.98278C120.186 9.80682 120.954 10.3647 121.821 10.3647H125.11C127.048 10.3647 127.853 12.844 126.286 13.9828L123.625 15.9164C122.924 16.4257 122.63 17.3284 122.898 18.1525L123.915 21.2812C124.513 23.1238 122.404 24.656 120.837 23.5172L118.176 21.5836C117.475 21.0743 116.525 21.0743 115.824 21.5836L113.163 23.5172C111.596 24.656 109.487 23.1238 110.085 21.2812L111.102 18.1525C111.37 17.3284 111.076 16.4257 110.375 15.9164L107.714 13.9828C106.147 12.844 106.952 10.3647 108.89 10.3647H112.179C113.046 10.3647 113.814 9.80682 114.081 8.98278L115.098 5.8541Z" fill="#E6C71A"/>
<path opacity="0.2" d="M149.098 5.8541C149.697 4.01148 152.303 4.01148 152.902 5.8541L153.919 8.98278C154.186 9.80682 154.954 10.3647 155.821 10.3647H159.11C161.048 10.3647 161.853 12.844 160.286 13.9828L157.625 15.9164C156.924 16.4257 156.63 17.3284 156.898 18.1525L157.915 21.2812C158.513 23.1238 156.404 24.656 154.837 23.5172L152.176 21.5836C151.475 21.0743 150.525 21.0743 149.824 21.5836L147.163 23.5172C145.596 24.656 143.487 23.1238 144.085 21.2812L145.102 18.1525C145.37 17.3284 145.076 16.4257 144.375 15.9164L141.714 13.9828C140.147 12.844 140.952 10.3647 142.89 10.3647H146.179C147.046 10.3647 147.814 9.80682 148.081 8.98278L149.098 5.8541Z" fill="#E6C71A"/>
<path opacity="0.2" d="M13.0979 5.8541C13.6966 4.01148 16.3034 4.01148 16.9021 5.8541L17.9187 8.98278C18.1864 9.80682 18.9543 10.3647 19.8208 10.3647H23.1105C25.0479 10.3647 25.8535 12.844 24.2861 13.9828L21.6246 15.9164C20.9237 16.4257 20.6304 17.3284 20.8981 18.1525L21.9147 21.2812C22.5134 23.1238 20.4044 24.656 18.837 23.5172L16.1756 21.5836C15.4746 21.0743 14.5254 21.0743 13.8244 21.5836L11.163 23.5172C9.59559 24.656 7.48663 23.1238 8.08533 21.2812L9.1019 18.1525C9.36965 17.3284 9.07633 16.4257 8.37536 15.9164L5.71395 13.9828C4.14652 12.844 4.95207 10.3647 6.88952 10.3647H10.1792C11.0457 10.3647 11.8136 9.80682 12.0813 8.98278L13.0979 5.8541Z" fill="#E6C71A"/>
<path opacity="0.2" d="M81.0979 5.8541C81.6966 4.01148 84.3034 4.01148 84.9021 5.8541L85.9187 8.98278C86.1864 9.80682 86.9543 10.3647 87.8208 10.3647H91.1105C93.0479 10.3647 93.8535 12.844 92.2861 13.9828L89.6246 15.9164C88.9237 16.4257 88.6304 17.3284 88.8981 18.1525L89.9147 21.2812C90.5134 23.1238 88.4044 24.656 86.837 23.5172L84.1756 21.5836C83.4746 21.0743 82.5254 21.0743 81.8244 21.5836L79.163 23.5172C77.5956 24.656 75.4866 23.1238 76.0853 21.2812L77.1019 18.1525C77.3697 17.3284 77.0763 16.4257 76.3754 15.9164L73.714 13.9828C72.1465 12.844 72.9521 10.3647 74.8895 10.3647H78.1792C79.0457 10.3647 79.8136 9.80682 80.0813 8.98278L81.0979 5.8541Z" fill="#E6C71A"/>
</svg>
